<?xml version="1.0" encoding="UTF-8"?>
<svg xmlns="http://www.w3.org/2000/svg" xmlns:xlink="http://www.w3.org/1999/xlink" width="900pt" height="899.99999pt" viewBox="0 0 900 899.99999" version="1.2">
<defs>
<clipPath id="clip1">
  <path d="M 69.734375 418 L 830.234375 418 L 830.234375 836.703125 L 69.734375 836.703125 Z M 69.734375 418 "/>
</clipPath>
<clipPath id="clip2">
  <path d="M 259 63.453125 L 641 63.453125 L 641 444 L 259 444 Z M 259 63.453125 "/>
</clipPath>
</defs>
<g id="surface1">
<g clip-path="url(#clip1)" clip-rule="nonzero">
<path style=" stroke:none;fill-rule:nonzero;fill:rgb(100%,100%,100%);fill-opacity:1;" d="M 804.832031 811.351562 L 95.136719 811.351562 L 95.136719 786 L 804.832031 786 Z M 103.699219 735.292969 L 196.523438 735.292969 L 196.523438 709.941406 L 109.195312 709.941406 L 114.691406 684.589844 L 171.175781 684.589844 L 171.175781 659.234375 L 120.234375 659.234375 L 125.730469 633.882812 L 183.847656 633.882812 L 183.847656 608.53125 L 131.273438 608.53125 L 136.769531 583.179688 L 196.523438 583.179688 L 196.523438 557.824219 L 142.265625 557.824219 L 147.757812 532.472656 L 209.195312 532.472656 L 209.195312 507.121094 L 153.304688 507.121094 L 156.027344 494.445312 L 399.292969 494.445312 L 399.292969 646.558594 L 424.636719 646.558594 L 424.636719 494.445312 L 462.65625 494.445312 L 462.65625 557.824219 L 488.003906 557.824219 L 488.003906 494.445312 L 666.617188 494.445312 L 724.4375 760.644531 L 98.207031 760.644531 Z M 743.941406 494.445312 L 801.761719 760.644531 L 750.378906 760.644531 L 692.554688 494.445312 Z M 829.882812 770.648438 L 766.515625 479.09375 C 765.277344 473.25 760.082031 469.09375 754.140625 469.09375 L 551.371094 469.09375 L 551.371094 418.386719 L 526.023438 418.386719 L 526.023438 469.09375 L 373.945312 469.09375 L 373.945312 418.386719 L 348.597656 418.386719 L 348.597656 469.09375 L 145.828125 469.09375 C 139.886719 469.09375 134.691406 473.25 133.453125 479.09375 L 70.085938 770.648438 C 69.988281 771.042969 70.136719 771.441406 70.085938 771.835938 C 70.039062 772.332031 69.789062 772.777344 69.789062 773.320312 L 69.789062 824.027344 C 69.789062 831.007812 75.484375 836.703125 82.464844 836.703125 L 817.507812 836.703125 C 824.484375 836.703125 830.179688 831.007812 830.179688 824.027344 L 830.179688 773.320312 C 830.179688 772.777344 829.929688 772.332031 829.882812 771.835938 C 829.832031 771.441406 829.980469 771.042969 829.882812 770.648438 "/>
</g>
<g clip-path="url(#clip2)" clip-rule="nonzero">
<path style=" stroke:none;fill-rule:nonzero;fill:rgb(100%,100%,100%);fill-opacity:1;" d="M 285.234375 185.363281 L 421.667969 253.597656 L 285.234375 321.832031 Z M 437.3125 96.628906 L 437.3125 233.097656 L 300.878906 164.863281 Z M 437.3125 410.5625 L 300.878906 342.332031 L 437.3125 274.097656 Z M 462.65625 274.097656 L 599.09375 342.332031 L 462.65625 410.5625 Z M 462.65625 96.628906 L 599.09375 164.863281 L 462.65625 233.097656 Z M 614.734375 321.832031 L 478.300781 253.597656 L 614.734375 185.363281 Z M 266.867188 353.667969 L 444.292969 442.402344 C 444.488281 442.503906 444.738281 442.453125 444.886719 442.550781 C 446.519531 443.246094 448.25 443.738281 449.984375 443.738281 C 451.71875 443.738281 453.449219 443.246094 455.082031 442.550781 C 455.230469 442.453125 455.480469 442.503906 455.675781 442.402344 L 614.734375 362.832031 L 614.734375 418.386719 L 640.082031 418.386719 L 640.082031 164.863281 C 640.082031 163.722656 639.882812 162.585938 639.636719 161.496094 C 639.488281 161.148438 639.339844 160.800781 639.191406 160.457031 C 638.941406 159.761719 638.695312 159.070312 638.300781 158.425781 C 638.050781 158.078125 637.753906 157.734375 637.507812 157.335938 C 637.113281 156.839844 636.714844 156.296875 636.269531 155.851562 C 635.921875 155.503906 635.527344 155.207031 635.132812 154.960938 C 634.785156 154.664062 634.4375 154.316406 634.089844 154.070312 C 633.894531 153.96875 633.695312 153.917969 633.546875 153.820312 C 633.347656 153.722656 633.25 153.621094 633.101562 153.523438 L 455.675781 64.789062 C 452.0625 63.007812 447.90625 63.007812 444.292969 64.789062 L 266.867188 153.523438 C 266.71875 153.621094 266.621094 153.722656 266.421875 153.820312 C 266.273438 153.917969 266.074219 153.96875 265.878906 154.070312 C 265.53125 154.316406 265.183594 154.664062 264.835938 154.960938 C 264.441406 155.207031 264.046875 155.503906 263.699219 155.851562 C 263.253906 156.296875 262.859375 156.839844 262.460938 157.335938 C 262.214844 157.734375 261.917969 158.078125 261.667969 158.425781 C 261.273438 159.070312 261.027344 159.761719 260.777344 160.457031 C 260.628906 160.800781 260.480469 161.148438 260.332031 161.496094 C 260.085938 162.585938 259.886719 163.722656 259.886719 164.863281 L 259.886719 342.332031 C 259.886719 347.132812 262.609375 351.539062 266.867188 353.667969 "/>
</g>
<path style=" stroke:none;fill-rule:nonzero;fill:rgb(100%,100%,100%);fill-opacity:1;" d="M 564.042969 557.824219 L 589.390625 557.824219 L 589.390625 507.121094 L 564.042969 507.121094 L 564.042969 557.824219 "/>
<path style=" stroke:none;fill-rule:nonzero;fill:rgb(100%,100%,100%);fill-opacity:1;" d="M 614.734375 570.503906 L 640.082031 570.503906 L 640.082031 519.796875 L 614.734375 519.796875 L 614.734375 570.503906 "/>
<path style=" stroke:none;fill-rule:nonzero;fill:rgb(100%,100%,100%);fill-opacity:1;" d="M 513.351562 646.558594 L 538.695312 646.558594 L 538.695312 557.824219 L 513.351562 557.824219 L 513.351562 646.558594 "/>
<path style=" stroke:none;fill-rule:nonzero;fill:rgb(100%,100%,100%);fill-opacity:1;" d="M 285.234375 380.359375 L 259.886719 380.359375 L 259.886719 418.386719 L 285.234375 418.386719 L 285.234375 380.359375 "/>
<path style=" stroke:none;fill-rule:nonzero;fill:rgb(100%,100%,100%);fill-opacity:1;" d="M 310.578125 646.558594 L 335.925781 646.558594 L 335.925781 566.292969 L 310.578125 566.292969 L 310.578125 646.558594 "/>
<path style=" stroke:none;fill-rule:nonzero;fill:rgb(100%,100%,100%);fill-opacity:1;" d="M 259.886719 570.503906 L 285.234375 570.503906 L 285.234375 519.796875 L 259.886719 519.796875 L 259.886719 570.503906 "/>
<path style=" stroke:none;fill-rule:nonzero;fill:rgb(100%,100%,100%);fill-opacity:1;" d="M 361.273438 597.984375 L 386.617188 597.984375 L 386.617188 545.148438 L 361.273438 545.148438 L 361.273438 597.984375 "/>
<path style=" stroke:none;fill-rule:nonzero;fill:rgb(100%,100%,100%);fill-opacity:1;" d="M 462.65625 608.53125 L 488.003906 608.53125 L 488.003906 583.179688 L 462.65625 583.179688 L 462.65625 608.53125 "/>
</g>
</svg>
