<?xml version="1.0" encoding="UTF-8"?>
<svg xmlns="http://www.w3.org/2000/svg" preserveAspectRatio="none" xmlns:xlink="http://www.w3.org/1999/xlink" width="1012.5pt" height="487.499991pt" viewBox="0 0 1012.5 487.499991" version="1.2">
<defs>
<clipPath id="clip1">
  <path d="M 0.269531 101 L 1011.730469 101 L 1011.730469 288 L 0.269531 288 Z M 0.269531 101 "/>
</clipPath>
<clipPath id="clip2">
  <path d="M 0.269531 69 L 1011.730469 69 L 1011.730469 243 L 0.269531 243 Z M 0.269531 69 "/>
</clipPath>
<clipPath id="clip3">
  <path d="M 0.269531 0 L 1011.730469 0 L 1011.730469 200 L 0.269531 200 Z M 0.269531 0 "/>
</clipPath>
</defs>
<g id="surface1">
<g clip-path="url(#clip1)" clip-rule="nonzero">
<path style=" stroke:none;fill-rule:nonzero;fill:rgb(78.039551%,81.568909%,84.709167%);fill-opacity:1;" d="M 571.285156 136.613281 C 310.105469 46.449219 192.546875 154.597656 125.367188 195.78125 C 26.628906 256.398438 0.28125 241.027344 0.28125 241.027344 L 0.28125 287.433594 C 101.046875 273.800781 276.808594 46.664062 489.921875 146.183594 C 802.933594 301.066406 1011.703125 183.019531 1011.703125 183.019531 L 1011.703125 130.8125 C 1011.703125 130.8125 859.394531 258.71875 571.285156 136.613281 Z M 571.285156 136.613281 "/>
</g>
<g clip-path="url(#clip2)" clip-rule="nonzero">
<path style=" stroke:none;fill-rule:nonzero;fill:rgb(66.668701%,73.329163%,81.568909%);fill-opacity:1;" d="M 691.164062 141.835938 C 446.488281 54.824219 334.140625 46.480469 187.332031 125.011719 C 58.191406 210.285156 0.28125 198.390625 0.28125 198.390625 L 0.28125 241.027344 C 0.28125 241.027344 26.628906 256.398438 125.367188 195.78125 C 192.546875 154.597656 310.105469 46.449219 571.285156 136.613281 C 859.105469 258.71875 1011.414062 131.101562 1011.414062 131.101562 L 1011.414062 69.035156 C 1011.703125 69.035156 849.550781 198.390625 691.164062 141.835938 Z M 691.164062 141.835938 "/>
</g>
<g clip-path="url(#clip3)" clip-rule="nonzero">
<path style=" stroke:none;fill-rule:nonzero;fill:rgb(0%,0%,0%);fill-opacity:1;" d="M 0.28125 42.863281 L 0.28125 198.683594 C 0.28125 198.683594 58.191406 210.285156 187.332031 125.300781 C 333.851562 46.488281 446.488281 55.113281 691.164062 142.125 C 849.550781 198.390625 1011.703125 69.035156 1011.703125 69.035156 L 1011.703125 -130.050781 L 0.28125 -130.050781 Z M 0.28125 42.863281 "/>
</g>
</g>
</svg>
