<?xml version="1.0" encoding="UTF-8"?>
<svg xmlns="http://www.w3.org/2000/svg" xmlns:xlink="http://www.w3.org/1999/xlink" width="900pt" height="899.99999pt" viewBox="0 0 900 899.99999" version="1.2">
<defs>
<clipPath id="clip1">
  <path d="M 153 11.703125 L 747 11.703125 L 747 888.453125 L 153 888.453125 Z M 153 11.703125 "/>
</clipPath>
</defs>
<g id="surface1">
<g clip-path="url(#clip1)" clip-rule="nonzero">
<path style=" stroke:none;fill-rule:evenodd;fill:rgb(100%,100%,100%);fill-opacity:1;" d="M 746.691406 90.9375 C 746.691406 47.117188 711.210938 11.589844 667.394531 11.589844 C 558.558594 11.589844 341.164062 11.589844 232.328125 11.589844 C 188.511719 11.589844 153.03125 47.117188 153.03125 90.9375 C 153.03125 248.976562 153.03125 651.0625 153.03125 809.101562 C 153.03125 852.921875 188.511719 888.449219 232.328125 888.449219 C 341.164062 888.449219 558.558594 888.449219 667.394531 888.449219 C 711.210938 888.449219 746.691406 852.921875 746.691406 809.101562 Z M 718.421875 90.9375 C 718.421875 62.738281 695.59375 39.875 667.394531 39.875 C 558.558594 39.875 341.164062 39.875 232.328125 39.875 C 204.128906 39.875 181.300781 62.738281 181.300781 90.9375 C 181.300781 248.976562 181.300781 651.0625 181.300781 809.101562 C 181.300781 837.300781 204.128906 860.164062 232.328125 860.164062 C 341.164062 860.164062 558.558594 860.164062 667.394531 860.164062 C 695.59375 860.164062 718.421875 837.300781 718.421875 809.101562 Z M 343.851562 732.878906 C 343.851562 725.0625 337.5625 718.734375 329.714844 718.734375 L 244.910156 718.734375 C 237.0625 718.734375 230.773438 725.0625 230.773438 732.878906 L 230.773438 817.734375 C 230.773438 825.550781 237.0625 831.878906 244.910156 831.878906 L 329.714844 831.878906 C 337.5625 831.878906 343.851562 825.550781 343.851562 817.734375 Z M 668.949219 732.878906 C 668.949219 725.0625 662.660156 718.734375 654.816406 718.734375 L 407.457031 718.734375 C 399.613281 718.734375 393.324219 725.0625 393.324219 732.878906 L 393.324219 817.734375 C 393.324219 825.550781 399.613281 831.878906 407.457031 831.878906 L 654.816406 831.878906 C 662.660156 831.878906 668.949219 825.550781 668.949219 817.734375 Z M 259.042969 747.019531 L 259.042969 803.59375 L 315.582031 803.59375 L 315.582031 747.019531 Z M 421.59375 747.019531 L 421.59375 803.59375 L 640.679688 803.59375 L 640.679688 747.019531 Z M 506.398438 591.449219 C 506.398438 583.636719 500.109375 577.304688 492.265625 577.304688 L 407.457031 577.304688 C 399.613281 577.304688 393.324219 583.636719 393.324219 591.449219 L 393.324219 676.304688 C 393.324219 684.121094 399.613281 690.449219 407.457031 690.449219 L 492.265625 690.449219 C 500.109375 690.449219 506.398438 684.121094 506.398438 676.304688 Z M 668.949219 591.449219 C 668.949219 583.636719 662.660156 577.304688 654.816406 577.304688 L 570.007812 577.304688 C 562.160156 577.304688 555.871094 583.636719 555.871094 591.449219 L 555.871094 676.304688 C 555.871094 684.121094 562.160156 690.449219 570.007812 690.449219 L 654.816406 690.449219 C 662.660156 690.449219 668.949219 684.121094 668.949219 676.304688 Z M 343.851562 591.449219 C 343.851562 583.636719 337.5625 577.304688 329.714844 577.304688 L 244.910156 577.304688 C 237.0625 577.304688 230.773438 583.636719 230.773438 591.449219 L 230.773438 676.304688 C 230.773438 684.121094 237.0625 690.449219 244.910156 690.449219 L 329.714844 690.449219 C 337.5625 690.449219 343.851562 684.121094 343.851562 676.304688 Z M 421.59375 605.589844 L 421.59375 662.164062 L 478.132812 662.164062 L 478.132812 605.589844 Z M 584.140625 605.589844 L 584.140625 662.164062 L 640.679688 662.164062 L 640.679688 605.589844 Z M 259.042969 605.589844 L 259.042969 662.164062 L 315.582031 662.164062 L 315.582031 605.589844 Z M 506.398438 450.019531 C 506.398438 442.207031 500.109375 435.875 492.265625 435.875 L 407.457031 435.875 C 399.613281 435.875 393.324219 442.207031 393.324219 450.019531 L 393.324219 534.878906 C 393.324219 542.691406 399.613281 549.019531 407.457031 549.019531 L 492.265625 549.019531 C 500.109375 549.019531 506.398438 542.691406 506.398438 534.878906 Z M 668.949219 450.019531 C 668.949219 442.207031 662.660156 435.875 654.816406 435.875 L 570.007812 435.875 C 562.160156 435.875 555.871094 442.207031 555.871094 450.019531 L 555.871094 534.878906 C 555.871094 542.691406 562.160156 549.019531 570.007812 549.019531 L 654.816406 549.019531 C 662.660156 549.019531 668.949219 542.691406 668.949219 534.878906 Z M 343.851562 450.019531 C 343.851562 442.207031 337.5625 435.875 329.714844 435.875 L 244.910156 435.875 C 237.0625 435.875 230.773438 442.207031 230.773438 450.019531 L 230.773438 534.878906 C 230.773438 542.691406 237.0625 549.019531 244.910156 549.019531 L 329.714844 549.019531 C 337.5625 549.019531 343.851562 542.691406 343.851562 534.878906 Z M 421.59375 464.164062 L 421.59375 520.734375 L 478.132812 520.734375 L 478.132812 464.164062 Z M 584.140625 464.164062 L 584.140625 520.734375 L 640.679688 520.734375 L 640.679688 464.164062 Z M 259.042969 464.164062 L 259.042969 520.734375 L 315.582031 520.734375 L 315.582031 464.164062 Z M 506.398438 308.589844 C 506.398438 300.777344 500.109375 294.449219 492.265625 294.449219 L 407.457031 294.449219 C 399.613281 294.449219 393.324219 300.777344 393.324219 308.589844 L 393.324219 393.449219 C 393.324219 401.261719 399.613281 407.589844 407.457031 407.589844 L 492.265625 407.589844 C 500.109375 407.589844 506.398438 401.261719 506.398438 393.449219 Z M 668.949219 308.589844 C 668.949219 300.777344 662.660156 294.449219 654.816406 294.449219 L 570.007812 294.449219 C 562.160156 294.449219 555.871094 300.777344 555.871094 308.589844 L 555.871094 393.449219 C 555.871094 401.261719 562.160156 407.589844 570.007812 407.589844 L 654.816406 407.589844 C 662.660156 407.589844 668.949219 401.261719 668.949219 393.449219 Z M 343.851562 308.589844 C 343.851562 300.777344 337.5625 294.449219 329.714844 294.449219 L 244.910156 294.449219 C 237.0625 294.449219 230.773438 300.777344 230.773438 308.589844 L 230.773438 393.449219 C 230.773438 401.261719 237.0625 407.589844 244.910156 407.589844 L 329.714844 407.589844 C 337.5625 407.589844 343.851562 401.261719 343.851562 393.449219 Z M 421.59375 322.734375 L 421.59375 379.304688 L 478.132812 379.304688 L 478.132812 322.734375 Z M 584.140625 322.734375 L 584.140625 379.304688 L 640.679688 379.304688 L 640.679688 322.734375 Z M 259.042969 322.734375 L 259.042969 379.304688 L 315.582031 379.304688 L 315.582031 322.734375 Z M 676.015625 96.445312 C 676.015625 88.632812 669.726562 82.304688 661.882812 82.304688 L 237.839844 82.304688 C 229.996094 82.304688 223.707031 88.632812 223.707031 96.445312 L 223.707031 202.519531 C 223.707031 210.332031 229.996094 216.660156 237.839844 216.660156 L 661.882812 216.660156 C 669.726562 216.660156 676.015625 210.332031 676.015625 202.519531 Z M 251.976562 110.589844 L 251.976562 188.375 L 647.746094 188.375 L 647.746094 110.589844 Z M 251.976562 110.589844 "/>
</g>
</g>
</svg>
