<?xml version="1.0" encoding="UTF-8"?>
<svg xmlns="http://www.w3.org/2000/svg" xmlns:xlink="http://www.w3.org/1999/xlink" width="900pt" height="899.99999pt" viewBox="0 0 900 899.99999" version="1.2">
<defs>
<clipPath id="clip1">
  <path d="M 17 17.832031 L 882 17.832031 L 882 881.832031 L 17 881.832031 Z M 17 17.832031 "/>
</clipPath>
</defs>
<g id="surface1">
<g clip-path="url(#clip1)" clip-rule="nonzero">
<path style=" stroke:none;fill-rule:nonzero;fill:rgb(100%,100%,100%);fill-opacity:1;" d="M 19.621094 235.726562 C 29.996094 278.480469 71.582031 359.535156 191.003906 387.660156 C 186.746094 428.695312 197.1875 460.136719 197.1875 460.136719 C 234.171875 562.703125 289.390625 606.019531 308.488281 725.5 C 311.003906 741.257812 317.320312 756.535156 326.1875 770.601562 C 332.515625 807.246094 350.171875 846.039062 383.382812 865.214844 C 402.03125 875.980469 428.230469 881.832031 454.082031 881.832031 C 476.851562 881.832031 499.347656 877.296875 516.191406 867.59375 C 547.640625 849.480469 568.410156 809.027344 575.351562 772.355469 C 583.628906 758.402344 589.246094 741.382812 591.152344 725.5 C 604.589844 613.683594 665.460938 562.703125 702.449219 460.136719 C 702.449219 460.136719 712.890625 428.695312 708.632812 387.660156 C 828.0625 359.539062 869.640625 278.480469 880.019531 235.726562 C 887.183594 206.207031 871.316406 202.363281 860.105469 199.792969 C 840.574219 195.320312 822.484375 193.332031 805.753906 193.332031 C 725.441406 193.332031 676.578125 239.070312 650.304688 275.578125 C 647.398438 273.03125 644.378906 270.515625 641.203125 268.042969 L 642.550781 262.703125 C 647.171875 244.449219 646.335938 228.511719 640.695312 216.25 C 660.132812 176.601562 693.125 130.71875 748.785156 83.324219 C 774.597656 61.34375 791.289062 35.875 786.496094 26.707031 C 783.671875 21.300781 771.800781 17.832031 755.941406 17.832031 C 744.875 17.832031 731.863281 19.523438 718.632812 23.421875 C 644.550781 45.25 574.960938 89.734375 530.472656 181.84375 C 530.480469 181.84375 530.480469 181.84375 530.488281 181.839844 C 526.664062 182.949219 522.972656 184.464844 519.5 186.5 C 507.363281 193.609375 498.523438 206.054688 494.601562 221.542969 L 491.492188 233.828125 L 428.398438 233.828125 L 425.285156 221.539062 C 421.363281 206.054688 412.523438 193.609375 400.386719 186.5 C 396.914062 184.464844 393.230469 182.949219 389.414062 181.84375 C 344.925781 89.734375 275.339844 45.25 201.253906 23.421875 C 188.023438 19.523438 175.011719 17.832031 163.945312 17.832031 C 148.085938 17.832031 136.214844 21.300781 133.394531 26.707031 C 128.601562 35.875 145.292969 61.34375 171.105469 83.324219 C 226.765625 130.71875 259.753906 176.601562 279.195312 216.25 C 274.269531 226.964844 273.003906 240.472656 275.847656 255.894531 C 265.976562 262.15625 257.136719 268.738281 249.335938 275.578125 C 223.054688 239.070312 174.195312 193.332031 93.882812 193.332031 C 77.152344 193.332031 59.066406 195.320312 39.535156 199.792969 C 28.320312 202.363281 12.457031 206.207031 19.621094 235.726562 Z M 502.71875 844.199219 C 490.984375 850.957031 473.257812 854.832031 454.082031 854.832031 C 432.363281 854.832031 410.980469 849.96875 396.882812 841.832031 C 386.289062 835.722656 378.167969 826.949219 371.898438 817.351562 C 390.726562 829.996094 411.863281 838.433594 432.785156 840.59375 C 437.570312 841.089844 442.398438 841.332031 447.242188 841.332031 C 449.277344 841.332031 451.316406 841.285156 453.359375 841.203125 C 479.421875 840.125 505.703125 832.148438 528.339844 818.441406 C 521.199219 829.289062 512.609375 838.5 502.71875 844.199219 Z M 439.90625 740.082031 L 460.570312 740.082031 L 450.5625 752.277344 Z M 653.660156 456.582031 C 643.246094 456.582031 634.769531 449.011719 634.769531 439.707031 C 634.769531 430.402344 643.246094 422.832031 653.660156 422.832031 C 664.082031 422.832031 672.566406 430.402344 672.566406 439.707031 C 672.566406 449.011719 664.082031 456.582031 653.660156 456.582031 Z M 714.15625 358.339844 C 749.292969 281.386719 815.070312 254.101562 848.824219 244.894531 C 837.199219 275.121094 803.804688 333.109375 714.15625 358.339844 Z M 805.753906 220.332031 C 813.988281 220.332031 822.511719 220.9375 831.21875 222.058594 C 792.710938 234.542969 732.074219 264.804688 695.160156 335.996094 C 689.121094 322.191406 680.796875 308.304688 669.441406 294.929688 C 691.332031 262.933594 733.90625 220.332031 805.753906 220.332031 Z M 596.847656 129.097656 C 629.910156 91.335938 672.25 65.238281 726.265625 49.320312 C 733.75 47.117188 741.640625 45.667969 749.101562 45.101562 C 744.5 50.476562 738.546875 56.574219 731.28125 62.765625 C 676.488281 109.425781 642.128906 155.117188 620.761719 195.769531 C 620.761719 195.769531 620.761719 195.773438 620.769531 195.773438 C 617.914062 194.359375 614.847656 193.179688 611.539062 192.292969 L 560.710938 182.03125 C 571.21875 162.28125 583.269531 144.601562 596.847656 129.097656 Z M 520.773438 228.171875 C 522.90625 219.746094 527.304688 213.222656 533.152344 209.800781 C 538.714844 206.539062 545.492188 205.945312 553.320312 208.054688 L 604.894531 218.46875 C 619.566406 222.671875 620.109375 238.144531 617.320312 251.902344 C 614.039062 249.96875 610.742188 248.039062 607.234375 246.175781 C 593.003906 238.617188 567.722656 233.828125 551.609375 233.828125 L 519.339844 233.828125 Z M 366.566406 208.054688 C 374.378906 205.945312 381.160156 206.535156 386.738281 209.800781 C 392.585938 213.222656 396.980469 219.746094 399.117188 228.167969 L 400.554688 233.828125 L 348.023438 233.828125 C 334.875 233.828125 315.691406 237.058594 301.316406 242.34375 C 300.78125 231.652344 303.683594 221.707031 314.992188 218.46875 L 365.714844 208.253906 Z M 188.605469 62.765625 C 181.339844 56.574219 175.390625 50.476562 170.789062 45.101562 C 178.25 45.667969 186.140625 47.117188 193.621094 49.320312 C 247.640625 65.238281 289.976562 91.335938 323.042969 129.097656 C 336.621094 144.601562 348.671875 162.28125 359.175781 182.03125 L 309.191406 192.09375 L 308.347656 192.292969 C 305.039062 193.179688 301.976562 194.359375 299.121094 195.773438 C 299.128906 195.773438 299.128906 195.769531 299.128906 195.769531 C 277.757812 155.117188 243.402344 109.425781 188.605469 62.765625 Z M 305.066406 270.023438 C 314.125 265.210938 334.605469 260.828125 348.023438 260.828125 L 551.609375 260.828125 C 565.035156 260.828125 585.515625 265.210938 594.566406 270.019531 C 667.105469 308.570312 682.300781 365.898438 682.789062 405.828125 C 674.859375 399.585938 664.707031 395.832031 653.660156 395.832031 C 651.273438 395.832031 648.953125 396.0625 646.667969 396.398438 C 644.121094 395.648438 641.328125 395.625 638.605469 396.523438 C 636.152344 397.335938 578.382812 417.28125 564.8125 487.78125 C 563.398438 495.097656 568.191406 502.179688 575.515625 503.589844 C 576.378906 503.753906 577.238281 503.832031 578.082031 503.832031 C 584.421875 503.832031 590.078125 499.34375 591.324219 492.882812 C 594.730469 475.179688 601.636719 461.632812 609.449219 451.316406 C 614.796875 469.886719 632.558594 483.582031 653.660156 483.582031 C 657.316406 483.582031 660.859375 483.128906 664.273438 482.351562 C 653.140625 507.078125 640.714844 529.210938 628.558594 550.773438 C 601.316406 599.105469 573.144531 649.082031 564.34375 722.285156 C 562.660156 736.324219 557.308594 751.164062 550.019531 761.980469 C 531.667969 789.246094 498.472656 808.578125 463.320312 813.210938 L 463.320312 779.296875 C 463.320312 779.296875 503.816406 732.074219 503.816406 726.582031 C 503.816406 719.128906 497.773438 713.082031 490.320312 713.082031 L 409.320312 713.082031 C 401.863281 713.082031 395.820312 719.128906 395.820312 726.582031 C 395.820312 732.082031 436.320312 777.003906 436.320312 777.003906 L 436.320312 813.78125 C 436.070312 813.753906 435.804688 813.765625 435.554688 813.738281 C 389.992188 809.03125 342.132812 764.949219 335.152344 721.242188 C 322.835938 644.210938 295.851562 595.855469 269.753906 549.09375 C 256.921875 526.085938 243.757812 502.402344 231.984375 474.757812 C 239.65625 480.273438 249.164062 483.582031 259.480469 483.582031 C 280.558594 483.582031 298.324219 469.898438 303.675781 451.351562 C 311.5 461.671875 318.414062 475.222656 321.816406 492.882812 C 323.0625 499.34375 328.71875 503.832031 335.058594 503.832031 C 335.902344 503.832031 336.757812 503.753906 337.621094 503.589844 C 344.945312 502.179688 349.738281 495.097656 348.328125 487.78125 C 334.753906 417.28125 276.984375 397.335938 274.535156 396.523438 C 271.804688 395.617188 269.011719 395.640625 266.460938 396.398438 C 264.179688 396.0625 261.859375 395.832031 259.480469 395.832031 C 240.804688 395.832031 224.726562 406.5625 217.5625 421.898438 C 216.683594 411.375 216.578125 398.742188 218.476562 385.066406 C 225.339844 335.613281 254.476562 296.910156 305.066406 270.023438 Z M 240.574219 439.707031 C 240.574219 430.402344 249.058594 422.832031 259.480469 422.832031 C 269.894531 422.832031 278.371094 430.402344 278.371094 439.707031 C 278.371094 449.011719 269.894531 456.582031 259.480469 456.582031 C 249.058594 456.582031 240.574219 449.011719 240.574219 439.707031 Z M 93.882812 220.332031 C 165.746094 220.332031 208.332031 262.949219 230.203125 294.925781 C 218.847656 308.300781 210.523438 322.191406 204.476562 335.996094 C 167.566406 264.804688 106.929688 234.542969 68.417969 222.058594 C 77.125 220.9375 85.648438 220.332031 93.882812 220.332031 Z M 185.441406 358.324219 C 96.03125 333.140625 62.585938 275.375 50.890625 245.097656 C 84.628906 254.582031 150.511719 282.257812 185.441406 358.324219 Z M 185.441406 358.324219 "/>
</g>
</g>
</svg>
