<?xml version="1.0" encoding="UTF-8"?>
<svg xmlns="http://www.w3.org/2000/svg" xmlns:xlink="http://www.w3.org/1999/xlink" width="900pt" height="899.99999pt" viewBox="0 0 900 899.99999" version="1.2">
<defs>
<clipPath id="clip1">
  <path d="M 138 53.585938 L 762 53.585938 L 762 846.335938 L 138 846.335938 Z M 138 53.585938 "/>
</clipPath>
<clipPath id="clip2">
  <path d="M 767 205 L 875.390625 205 L 875.390625 846.335938 L 767 846.335938 Z M 767 205 "/>
</clipPath>
<clipPath id="clip3">
  <path d="M 25 205 L 133 205 L 133 846.335938 L 25 846.335938 Z M 25 205 "/>
</clipPath>
</defs>
<g id="surface1">
<g clip-path="url(#clip1)" clip-rule="nonzero">
<path style=" stroke:none;fill-rule:nonzero;fill:rgb(100%,100%,100%);fill-opacity:1;" d="M 733.390625 112.808594 C 728.90625 111.261719 724.207031 110.210938 719.226562 110.210938 L 464.304688 110.210938 L 464.304688 81.898438 L 719.226562 81.898438 C 727.027344 81.898438 733.390625 88.257812 733.390625 96.054688 Z M 435.980469 110.210938 L 407.652344 110.210938 L 407.652344 81.898438 L 435.980469 81.898438 Z M 379.328125 110.210938 L 351.003906 110.210938 L 351.003906 81.898438 L 379.328125 81.898438 Z M 322.679688 110.210938 L 181.054688 110.210938 C 176.078125 110.210938 171.375 111.261719 166.894531 112.808594 L 166.894531 96.054688 C 166.894531 88.257812 173.253906 81.898438 181.054688 81.898438 L 322.679688 81.898438 Z M 719.226562 53.585938 L 181.054688 53.585938 C 157.597656 53.585938 138.570312 72.609375 138.570312 96.054688 L 138.570312 435.804688 C 138.570312 441.832031 142.441406 447.25 148.140625 449.1875 C 153.835938 451.175781 160.199219 449.296875 163.90625 444.484375 L 240.027344 346.664062 C 247.996094 336.433594 262.933594 334.445312 273.386719 342.242188 C 282.957031 349.375 285.78125 362.644531 279.972656 373.097656 L 225.3125 471.417969 C 224.152344 473.515625 223.542969 475.894531 223.542969 478.273438 L 223.542969 505.203125 C 223.542969 540.261719 198.539062 570.730469 164.128906 577.644531 C 157.488281 578.96875 152.730469 584.777344 152.730469 591.523438 L 152.730469 846.335938 L 181.054688 846.335938 L 181.054688 602.417969 C 222.714844 588.980469 251.867188 549.773438 251.867188 505.203125 L 251.867188 481.921875 L 304.699219 386.808594 C 317.367188 364.082031 311.226562 335.164062 290.371094 319.566406 C 267.691406 302.59375 235.050781 306.960938 217.679688 329.300781 L 166.894531 394.550781 L 166.894531 152.679688 C 166.894531 144.882812 173.253906 138.523438 181.054688 138.523438 L 676.738281 138.523438 L 676.738281 237.617188 L 705.0625 237.617188 L 705.0625 138.523438 L 719.226562 138.523438 C 727.027344 138.523438 733.390625 144.882812 733.390625 152.679688 L 733.390625 394.496094 L 682.660156 329.246094 C 665.894531 307.789062 632.648438 302.867188 609.910156 319.566406 C 589.164062 335.164062 582.96875 364.082031 595.527344 386.921875 L 648.414062 481.921875 L 648.414062 505.148438 C 648.414062 528.703125 656.65625 551.765625 671.648438 570.066406 C 684.316406 585.496094 700.582031 596.554688 719.226562 602.472656 L 719.226562 846.335938 L 747.550781 846.335938 L 747.550781 591.523438 C 747.550781 584.777344 742.792969 578.96875 736.15625 577.644531 C 719.226562 574.269531 704.511719 565.421875 693.5 552.152344 C 682.714844 538.878906 676.738281 522.234375 676.738281 505.148438 L 676.738281 478.273438 C 676.738281 475.894531 676.128906 473.515625 674.96875 471.417969 L 620.3125 373.207031 C 614.503906 362.699219 617.324219 349.375 626.785156 342.296875 C 637.40625 334.5 652.5625 336.765625 660.308594 346.664062 L 736.375 444.484375 C 740.082031 449.296875 746.445312 451.175781 752.144531 449.1875 C 757.839844 447.25 761.714844 441.832031 761.714844 435.804688 L 761.714844 96.054688 C 761.714844 72.609375 742.683594 53.585938 719.226562 53.585938 "/>
</g>
<path style=" stroke:none;fill-rule:nonzero;fill:rgb(100%,100%,100%);fill-opacity:1;" d="M 280.191406 492.429688 L 620.089844 492.429688 L 620.089844 464.117188 L 280.191406 464.117188 L 280.191406 492.429688 "/>
<path style=" stroke:none;fill-rule:nonzero;fill:rgb(100%,100%,100%);fill-opacity:1;" d="M 301.4375 412.191406 L 315.597656 436.6875 C 346.191406 418.992188 365.167969 386.148438 365.167969 350.867188 C 365.167969 296.234375 320.6875 251.773438 266.03125 251.773438 C 224.097656 251.773438 186.53125 278.316406 172.535156 317.855469 L 199.257812 327.253906 C 209.214844 299.054688 236.046875 280.085938 266.03125 280.085938 C 305.085938 280.085938 336.84375 311.828125 336.84375 350.867188 C 336.84375 376.082031 323.289062 399.527344 301.4375 412.191406 "/>
<path style=" stroke:none;fill-rule:nonzero;fill:rgb(100%,100%,100%);fill-opacity:1;" d="M 634.253906 280.085938 C 664.238281 280.085938 691.066406 299.054688 701.027344 327.253906 L 727.746094 317.855469 C 713.75 278.316406 676.1875 251.773438 634.253906 251.773438 C 579.59375 251.773438 535.117188 296.234375 535.117188 350.867188 C 535.117188 386.148438 554.089844 418.992188 584.683594 436.6875 L 598.847656 412.191406 C 576.992188 399.527344 563.441406 376.082031 563.441406 350.867188 C 563.441406 311.828125 595.195312 280.085938 634.253906 280.085938 "/>
<g clip-path="url(#clip2)" clip-rule="nonzero">
<path style=" stroke:none;fill-rule:nonzero;fill:rgb(100%,100%,100%);fill-opacity:1;" d="M 875.011719 846.335938 L 875.011719 280.085938 C 875.011719 275.605469 872.910156 271.460938 869.3125 268.75 L 784.339844 205.046875 L 767.410156 227.71875 L 846.6875 287.164062 L 846.6875 846.335938 L 875.011719 846.335938 "/>
</g>
<path style=" stroke:none;fill-rule:nonzero;fill:rgb(100%,100%,100%);fill-opacity:1;" d="M 780.023438 332.5625 L 800.050781 312.546875 L 785.890625 298.390625 L 765.863281 318.40625 L 780.023438 332.5625 "/>
<g clip-path="url(#clip3)" clip-rule="nonzero">
<path style=" stroke:none;fill-rule:nonzero;fill:rgb(100%,100%,100%);fill-opacity:1;" d="M 30.914062 268.75 C 27.371094 271.460938 25.269531 275.605469 25.269531 280.085938 L 25.269531 846.335938 L 53.59375 846.335938 L 53.59375 287.164062 L 132.925781 227.71875 L 115.886719 205.046875 L 30.914062 268.75 "/>
</g>
<path style=" stroke:none;fill-rule:nonzero;fill:rgb(100%,100%,100%);fill-opacity:1;" d="M 120.257812 332.5625 L 134.417969 318.40625 L 114.394531 298.390625 L 100.230469 312.546875 L 120.257812 332.5625 "/>
</g>
</svg>
