<?xml version="1.0" encoding="UTF-8"?>
<svg xmlns="http://www.w3.org/2000/svg" xmlns:xlink="http://www.w3.org/1999/xlink" width="900pt" height="899.99999pt" viewBox="0 0 900 899.99999" version="1.2">
<defs>
<clipPath id="clip1">
  <path d="M 205 19.375 L 694 19.375 L 694 880.375 L 205 880.375 Z M 205 19.375 "/>
</clipPath>
<clipPath id="clip2">
  <path d="M 19.375 435 L 163 435 L 163 580 L 19.375 580 Z M 19.375 435 "/>
</clipPath>
<clipPath id="clip3">
  <path d="M 736 263 L 880.375 263 L 880.375 407 L 736 407 Z M 736 263 "/>
</clipPath>
</defs>
<g id="surface1">
<g clip-path="url(#clip1)" clip-rule="nonzero">
<path style=" stroke:none;fill-rule:nonzero;fill:rgb(100%,100%,100%);fill-opacity:1;" d="M 234.625 837.324219 L 234.625 62.421875 C 234.625 54.519531 241.070312 48.074219 248.972656 48.074219 L 650.773438 48.074219 C 658.675781 48.074219 665.125 54.519531 665.125 62.421875 L 665.125 837.324219 C 665.125 845.226562 658.675781 851.671875 650.773438 851.671875 L 248.972656 851.671875 C 241.070312 851.671875 234.625 845.226562 234.625 837.324219 Z M 650.773438 880.375 C 674.539062 880.375 693.824219 861.089844 693.824219 837.324219 L 693.824219 62.421875 C 693.824219 38.65625 674.539062 19.375 650.773438 19.375 L 248.972656 19.375 C 225.207031 19.375 205.921875 38.65625 205.921875 62.421875 L 205.921875 837.324219 C 205.921875 861.089844 225.207031 880.375 248.972656 880.375 L 650.773438 880.375 "/>
</g>
<path style=" stroke:none;fill-rule:nonzero;fill:rgb(100%,100%,100%);fill-opacity:1;" d="M 292.023438 119.824219 C 292.023438 111.917969 298.46875 105.472656 306.375 105.472656 L 593.375 105.472656 C 601.277344 105.472656 607.722656 111.917969 607.722656 119.824219 L 607.722656 665.125 C 607.722656 673.027344 601.277344 679.472656 593.375 679.472656 L 306.375 679.472656 C 298.46875 679.472656 292.023438 673.027344 292.023438 665.125 Z M 306.375 708.171875 L 593.375 708.171875 C 617.140625 708.171875 636.421875 688.890625 636.421875 665.125 L 636.421875 119.824219 C 636.421875 96.054688 617.140625 76.773438 593.375 76.773438 L 306.375 76.773438 C 282.605469 76.773438 263.324219 96.054688 263.324219 119.824219 L 263.324219 665.125 C 263.324219 688.890625 282.605469 708.171875 306.375 708.171875 "/>
<path style=" stroke:none;fill-rule:nonzero;fill:rgb(100%,100%,100%);fill-opacity:1;" d="M 481.710938 527.003906 L 434.347656 586.253906 L 416.96875 568.878906 C 411.363281 563.273438 402.28125 563.273438 396.675781 568.878906 C 391.070312 574.484375 391.070312 583.5625 396.675781 589.167969 L 425.378906 617.871094 C 428.066406 620.558594 431.710938 622.074219 435.523438 622.074219 C 435.804688 622.074219 436.027344 622.074219 436.308594 622.074219 C 440.398438 621.847656 444.15625 619.886719 446.734375 616.691406 L 504.132812 544.941406 C 509.066406 538.777344 508.058594 529.695312 501.890625 524.761719 C 495.726562 519.828125 486.644531 520.839844 481.710938 527.003906 "/>
<path style=" stroke:none;fill-rule:nonzero;fill:rgb(100%,100%,100%);fill-opacity:1;" d="M 751.222656 607.722656 L 751.222656 636.421875 L 779.921875 636.421875 L 779.921875 607.722656 L 751.222656 607.722656 "/>
<path style=" stroke:none;fill-rule:nonzero;fill:rgb(100%,100%,100%);fill-opacity:1;" d="M 751.222656 693.824219 L 779.921875 693.824219 L 779.921875 665.125 L 751.222656 665.125 L 751.222656 693.824219 "/>
<path style=" stroke:none;fill-rule:nonzero;fill:rgb(100%,100%,100%);fill-opacity:1;" d="M 722.523438 636.421875 L 722.523438 665.125 L 751.222656 665.125 L 751.222656 636.421875 L 722.523438 636.421875 "/>
<path style=" stroke:none;fill-rule:nonzero;fill:rgb(100%,100%,100%);fill-opacity:1;" d="M 808.625 665.125 L 808.625 636.421875 L 779.921875 636.421875 L 779.921875 665.125 L 808.625 665.125 "/>
<path style=" stroke:none;fill-rule:nonzero;fill:rgb(100%,100%,100%);fill-opacity:1;" d="M 119.824219 162.875 L 119.824219 191.574219 L 148.523438 191.574219 L 148.523438 162.875 L 119.824219 162.875 "/>
<path style=" stroke:none;fill-rule:nonzero;fill:rgb(100%,100%,100%);fill-opacity:1;" d="M 119.824219 248.972656 L 148.523438 248.972656 L 148.523438 220.273438 L 119.824219 220.273438 L 119.824219 248.972656 "/>
<path style=" stroke:none;fill-rule:nonzero;fill:rgb(100%,100%,100%);fill-opacity:1;" d="M 91.125 191.574219 L 91.125 220.273438 L 119.824219 220.273438 L 119.824219 191.574219 L 91.125 191.574219 "/>
<path style=" stroke:none;fill-rule:nonzero;fill:rgb(100%,100%,100%);fill-opacity:1;" d="M 177.222656 220.273438 L 177.222656 191.574219 L 148.523438 191.574219 L 148.523438 220.273438 L 177.222656 220.273438 "/>
<g clip-path="url(#clip2)" clip-rule="nonzero">
<path style=" stroke:none;fill-rule:nonzero;fill:rgb(100%,100%,100%);fill-opacity:1;" d="M 105.921875 507.273438 C 100.261719 511.476562 95.328125 516.410156 91.125 522.070312 C 86.917969 516.410156 81.988281 511.476562 76.324219 507.273438 C 81.988281 503.070312 86.917969 498.136719 91.125 492.476562 C 95.328125 498.136719 100.261719 503.070312 105.921875 507.273438 Z M 76.773438 449.875 C 76.773438 473.640625 57.492188 492.921875 33.722656 492.921875 C 25.820312 492.921875 19.375 499.371094 19.375 507.273438 C 19.375 515.175781 25.820312 521.625 33.722656 521.625 C 57.492188 521.625 76.773438 540.90625 76.773438 564.671875 C 76.773438 572.578125 83.21875 579.023438 91.125 579.023438 C 99.027344 579.023438 105.472656 572.578125 105.472656 564.671875 C 105.472656 540.90625 124.757812 521.625 148.523438 521.625 C 156.425781 521.625 162.875 515.175781 162.875 507.273438 C 162.875 499.371094 156.425781 492.921875 148.523438 492.921875 C 124.757812 492.921875 105.472656 473.640625 105.472656 449.875 C 105.472656 441.96875 99.027344 435.523438 91.125 435.523438 C 83.21875 435.523438 76.773438 441.96875 76.773438 449.875 "/>
</g>
<g clip-path="url(#clip3)" clip-rule="nonzero">
<path style=" stroke:none;fill-rule:nonzero;fill:rgb(100%,100%,100%);fill-opacity:1;" d="M 808.625 349.871094 C 804.417969 344.210938 799.488281 339.277344 793.824219 335.074219 C 799.488281 330.871094 804.417969 325.9375 808.625 320.273438 C 812.828125 325.9375 817.761719 330.871094 823.421875 335.074219 C 817.761719 339.277344 812.828125 344.210938 808.625 349.871094 Z M 866.023438 320.722656 C 842.257812 320.722656 822.972656 301.441406 822.972656 277.671875 C 822.972656 269.769531 816.527344 263.324219 808.625 263.324219 C 800.71875 263.324219 794.273438 269.769531 794.273438 277.671875 C 794.273438 301.441406 774.992188 320.722656 751.222656 320.722656 C 743.320312 320.722656 736.875 327.167969 736.875 335.074219 C 736.875 342.976562 743.320312 349.421875 751.222656 349.421875 C 774.992188 349.421875 794.273438 368.707031 794.273438 392.472656 C 794.273438 400.378906 800.71875 406.824219 808.625 406.824219 C 816.527344 406.824219 822.972656 400.378906 822.972656 392.472656 C 822.972656 368.707031 842.257812 349.421875 866.023438 349.421875 C 873.925781 349.421875 880.375 342.976562 880.375 335.074219 C 880.375 327.167969 873.925781 320.722656 866.023438 320.722656 "/>
</g>
<path style=" stroke:none;fill-rule:nonzero;fill:rgb(100%,100%,100%);fill-opacity:1;" d="M 378.125 263.324219 C 378.125 247.515625 391.015625 234.625 406.824219 234.625 L 492.921875 234.625 C 508.730469 234.625 521.625 247.515625 521.625 263.324219 L 521.625 292.023438 L 378.125 292.023438 Z M 527.117188 435.523438 L 464.222656 435.523438 L 464.222656 320.722656 L 547.519531 320.722656 Z M 372.628906 435.523438 L 352.226562 320.722656 L 435.523438 320.722656 L 435.523438 435.523438 Z M 360.578125 464.222656 L 539.167969 464.222656 C 546.121094 464.222656 552.0625 459.234375 553.292969 452.394531 L 578.800781 308.894531 C 579.527344 304.691406 578.40625 300.433594 575.660156 297.179688 C 572.96875 293.929688 568.933594 292.023438 564.671875 292.023438 L 550.324219 292.023438 L 550.324219 263.324219 C 550.324219 231.652344 524.59375 205.921875 492.921875 205.921875 L 406.824219 205.921875 C 375.152344 205.921875 349.421875 231.652344 349.421875 263.324219 L 349.421875 292.023438 L 335.074219 292.023438 C 330.8125 292.023438 326.777344 293.929688 324.085938 297.179688 C 321.339844 300.433594 320.21875 304.691406 320.949219 308.894531 L 346.453125 452.394531 C 347.6875 459.234375 353.628906 464.222656 360.578125 464.222656 "/>
<path style=" stroke:none;fill-rule:nonzero;fill:rgb(100%,100%,100%);fill-opacity:1;" d="M 478.574219 794.273438 L 421.171875 794.273438 C 413.269531 794.273438 406.824219 787.828125 406.824219 779.921875 C 406.824219 772.019531 413.269531 765.574219 421.171875 765.574219 L 478.574219 765.574219 C 486.476562 765.574219 492.921875 772.019531 492.921875 779.921875 C 492.921875 787.828125 486.476562 794.273438 478.574219 794.273438 Z M 478.574219 736.875 L 421.171875 736.875 C 397.40625 736.875 378.125 756.15625 378.125 779.921875 C 378.125 803.691406 397.40625 822.972656 421.171875 822.972656 L 478.574219 822.972656 C 502.339844 822.972656 521.625 803.691406 521.625 779.921875 C 521.625 756.15625 502.339844 736.875 478.574219 736.875 "/>
</g>
</svg>
