<?xml version="1.0" encoding="UTF-8"?>
<svg xmlns="http://www.w3.org/2000/svg" xmlns:xlink="http://www.w3.org/1999/xlink" width="1012.5pt" height="487.499991pt" viewBox="0 0 1012.5 487.499991" version="1.2">
<defs>
<clipPath id="clip1">
  <path d="M 919.4375 43.324219 L 978.65625 43.324219 L 978.65625 102.542969 L 919.4375 102.542969 Z M 919.4375 43.324219 "/>
</clipPath>
</defs>
<g id="surface1">
<path style=" stroke:none;fill-rule:nonzero;fill:rgb(92.939758%,27.449036%,16.079712%);fill-opacity:1;" d="M 975.125 111.488281 L 55.128906 111.488281 C 47.136719 111.488281 40.621094 104.964844 40.621094 96.953125 L 40.621094 48.894531 C 40.621094 40.882812 47.136719 34.355469 55.128906 34.355469 L 975.125 34.355469 C 983.121094 34.355469 989.636719 40.882812 989.636719 48.894531 L 989.636719 96.953125 C 989.636719 104.964844 983.121094 111.488281 975.125 111.488281 Z M 975.125 111.488281 "/>
<path style=" stroke:none;fill-rule:nonzero;fill:rgb(100%,100%,100%);fill-opacity:1;" d="M 890.980469 102.488281 L 66.609375 102.488281 C 60.476562 102.488281 55.480469 97.480469 55.480469 91.335938 L 55.480469 54.472656 C 55.480469 48.332031 60.476562 43.324219 66.609375 43.324219 L 890.980469 43.324219 C 897.113281 43.324219 902.109375 48.332031 902.109375 54.472656 L 902.109375 91.335938 C 902.109375 97.480469 897.113281 102.488281 890.980469 102.488281 Z M 890.980469 102.488281 "/>
<g clip-path="url(#clip1)" clip-rule="nonzero">
<path style=" stroke:none;fill-rule:nonzero;fill:rgb(100%,100%,100%);fill-opacity:1;" d="M 945.757812 59.773438 C 940.3125 59.773438 935.886719 64.199219 935.886719 69.644531 C 935.886719 75.089844 940.3125 79.511719 945.757812 79.511719 C 951.203125 79.511719 955.628906 75.089844 955.628906 69.644531 C 955.628906 64.199219 951.203125 59.773438 945.757812 59.773438 Z M 972.078125 43.324219 L 926.019531 43.324219 C 922.382812 43.324219 919.4375 46.269531 919.4375 49.902344 L 919.4375 95.964844 C 919.4375 99.597656 922.382812 102.542969 926.019531 102.542969 L 972.078125 102.542969 C 975.714844 102.542969 978.65625 99.597656 978.65625 95.964844 L 978.65625 49.902344 C 978.65625 46.269531 975.714844 43.324219 972.078125 43.324219 Z M 967.421875 95.964844 L 954.820312 83.363281 C 952.222656 85.074219 949.113281 86.09375 945.757812 86.09375 C 936.679688 86.09375 929.308594 78.722656 929.308594 69.644531 C 929.308594 60.5625 936.679688 53.195312 945.757812 53.195312 C 954.839844 53.195312 962.207031 60.5625 962.207031 69.644531 C 962.207031 73 961.1875 76.109375 959.476562 78.707031 L 972.078125 91.308594 Z M 967.421875 95.964844 "/>
</g>
</g>
</svg>
