<?xml version="1.0" encoding="UTF-8"?>
<svg xmlns="http://www.w3.org/2000/svg" xmlns:xlink="http://www.w3.org/1999/xlink" width="900pt" height="899.99999pt" viewBox="0 0 900 899.99999" version="1.2">
<defs>
<clipPath id="clip1">
  <path d="M 16 131.160156 L 884 131.160156 L 884 768.660156 L 16 768.660156 Z M 16 131.160156 "/>
</clipPath>
</defs>
<g id="surface1">
<g clip-path="url(#clip1)" clip-rule="nonzero">
<path style=" stroke:none;fill-rule:nonzero;fill:rgb(100%,100%,100%);fill-opacity:1;" d="M 829.554688 131.160156 L 70.269531 131.160156 C 40.441406 131.160156 16.035156 155.574219 16.035156 185.414062 L 16.035156 660.148438 C 16.035156 689.988281 40.441406 714.40625 70.269531 714.40625 L 334.664062 714.40625 L 334.664062 741.53125 L 266.871094 741.53125 C 259.414062 741.53125 253.3125 747.636719 253.3125 755.097656 C 253.3125 762.554688 259.414062 768.660156 266.871094 768.660156 L 632.957031 768.660156 C 640.414062 768.660156 646.515625 762.554688 646.515625 755.097656 C 646.515625 747.636719 640.414062 741.53125 632.957031 741.53125 L 565.164062 741.53125 L 565.164062 714.40625 L 829.554688 714.40625 C 859.386719 714.40625 883.789062 689.988281 883.789062 660.148438 L 883.789062 185.414062 C 883.789062 155.574219 859.386719 131.160156 829.554688 131.160156 Z M 538.046875 741.53125 L 361.78125 741.53125 L 361.78125 714.40625 L 538.046875 714.40625 Z M 829.554688 687.277344 L 70.269531 687.277344 C 55.355469 687.277344 43.152344 675.070312 43.152344 660.148438 L 856.671875 660.148438 C 856.671875 675.070312 844.46875 687.277344 829.554688 687.277344 Z M 856.671875 633.023438 L 43.152344 633.023438 L 43.152344 185.414062 C 43.152344 170.496094 55.355469 158.289062 70.269531 158.289062 L 829.554688 158.289062 C 844.46875 158.289062 856.671875 170.496094 856.671875 185.414062 Z M 856.671875 633.023438 "/>
</g>
<path style=" stroke:none;fill-rule:nonzero;fill:rgb(100%,100%,100%);fill-opacity:1;" d="M 727.867188 307.488281 L 721.085938 307.488281 L 721.085938 239.671875 C 721.085938 209.832031 696.679688 185.414062 666.851562 185.414062 L 571.941406 185.414062 C 542.113281 185.414062 517.707031 209.832031 517.707031 239.671875 L 517.707031 307.488281 L 510.925781 307.488281 C 481.097656 307.488281 456.691406 331.90625 456.691406 361.746094 L 456.691406 375.308594 L 483.808594 375.308594 L 483.808594 361.746094 C 483.808594 346.824219 496.011719 334.617188 510.925781 334.617188 L 727.867188 334.617188 C 742.78125 334.617188 754.984375 346.824219 754.984375 361.746094 L 754.984375 551.640625 C 754.984375 566.558594 742.78125 578.765625 727.867188 578.765625 L 510.925781 578.765625 C 496.011719 578.765625 483.808594 566.558594 483.808594 551.640625 L 483.808594 540.789062 C 475.675781 538.753906 468.21875 536.039062 462.117188 530.613281 C 460.082031 531.292969 458.726562 532.648438 456.691406 533.328125 L 456.691406 551.640625 C 456.691406 581.480469 481.097656 605.894531 510.925781 605.894531 L 727.867188 605.894531 C 757.695312 605.894531 782.101562 581.480469 782.101562 551.640625 L 782.101562 361.746094 C 782.101562 331.90625 757.695312 307.488281 727.867188 307.488281 Z M 693.96875 307.488281 L 544.824219 307.488281 L 544.824219 239.671875 C 544.824219 224.75 557.027344 212.542969 571.941406 212.542969 L 666.851562 212.542969 C 681.765625 212.542969 693.96875 224.75 693.96875 239.671875 Z M 693.96875 307.488281 "/>
<path style=" stroke:none;fill-rule:nonzero;fill:rgb(100%,100%,100%);fill-opacity:1;" d="M 475.675781 506.878906 C 475.675781 506.878906 476.351562 507.554688 476.351562 507.554688 C 477.03125 508.234375 477.03125 508.234375 477.707031 508.914062 C 483.132812 514.339844 489.910156 517.050781 496.691406 517.050781 C 499.402344 517.050781 502.792969 516.371094 505.503906 515.695312 C 511.605469 515.695312 517.707031 512.980469 521.773438 508.914062 L 562.449219 473.648438 C 568.550781 468.222656 572.621094 460.082031 571.941406 451.265625 C 571.265625 443.128906 567.195312 434.988281 560.417969 430.242188 L 526.519531 407.183594 C 521.097656 403.792969 516.351562 402.4375 510.925781 402.4375 C 510.25 402.4375 509.570312 402.4375 508.894531 402.4375 L 298.058594 402.4375 C 276.363281 359.710938 238.398438 334.617188 195.6875 334.617188 C 127.21875 334.617188 70.949219 389.550781 70.269531 456.691406 C 69.59375 489.246094 82.472656 519.765625 105.523438 542.824219 C 128.574219 565.882812 159.082031 578.765625 192.300781 578.765625 C 237.042969 578.765625 278.398438 554.351562 300.769531 517.050781 L 325.851562 517.050781 C 333.308594 517.050781 340.089844 514.339844 344.835938 508.914062 L 355.003906 498.0625 C 355.003906 498.0625 355.003906 498.738281 355.679688 498.738281 C 359.75 508.914062 369.917969 515.695312 380.765625 515.695312 C 390.933594 515.695312 399.746094 510.269531 404.492188 501.453125 C 404.492188 501.453125 404.492188 500.773438 404.492188 500.773438 C 405.847656 499.417969 406.527344 498.738281 407.882812 497.382812 L 410.59375 493.316406 L 416.015625 500.097656 C 420.761719 506.199219 428.21875 509.589844 435.675781 509.589844 C 436.355469 509.589844 436.355469 509.589844 437.03125 509.589844 C 443.8125 509.589844 450.589844 506.878906 456.015625 502.132812 L 464.148438 493.992188 Z M 380.085938 488.566406 Z M 454.660156 465.507812 L 437.03125 482.464844 L 420.085938 462.117188 C 417.371094 458.726562 413.304688 457.371094 409.914062 457.371094 C 409.914062 457.371094 409.914062 457.371094 409.238281 457.371094 C 405.171875 457.371094 401.101562 459.40625 398.390625 462.796875 L 385.511719 480.429688 L 370.59375 463.472656 C 367.882812 460.761719 364.496094 458.726562 360.425781 458.726562 C 360.425781 458.726562 359.75 458.726562 359.75 458.726562 C 356.359375 458.726562 352.292969 460.082031 350.257812 462.796875 L 324.496094 489.246094 L 291.957031 489.246094 C 286.53125 489.246094 281.785156 491.957031 279.753906 496.707031 C 263.480469 529.9375 228.90625 550.960938 192.300781 550.960938 C 166.539062 550.960938 142.808594 540.789062 125.183594 523.15625 C 107.558594 505.523438 98.066406 481.785156 98.066406 456.015625 C 98.746094 403.792969 142.808594 361.066406 195.6875 360.390625 C 245.855469 360.390625 268.90625 401.757812 277.039062 420.070312 C 279.074219 424.816406 283.820312 428.207031 289.921875 428.207031 L 508.894531 428.207031 C 509.570312 428.207031 510.25 428.207031 510.925781 428.207031 L 544.824219 451.265625 L 504.148438 486.53125 L 495.335938 486.53125 L 474.320312 464.832031 C 471.609375 462.117188 468.21875 460.761719 464.828125 460.761719 C 464.828125 460.761719 464.828125 460.761719 464.148438 460.761719 C 460.761719 461.4375 457.371094 462.796875 454.660156 465.507812 Z M 454.660156 465.507812 "/>
<path style=" stroke:none;fill-rule:nonzero;fill:rgb(100%,100%,100%);fill-opacity:1;" d="M 185.519531 402.4375 C 155.691406 402.4375 131.285156 426.851562 131.285156 456.691406 C 131.285156 486.53125 155.691406 510.949219 185.519531 510.949219 C 215.347656 510.949219 239.753906 486.53125 239.753906 456.691406 C 239.753906 426.851562 215.347656 402.4375 185.519531 402.4375 Z M 185.519531 483.820312 C 170.605469 483.820312 158.402344 471.613281 158.402344 456.691406 C 158.402344 441.773438 170.605469 429.566406 185.519531 429.566406 C 200.433594 429.566406 212.636719 441.773438 212.636719 456.691406 C 212.636719 471.613281 200.433594 483.820312 185.519531 483.820312 Z M 185.519531 483.820312 "/>
</g>
</svg>
