<?xml version="1.0" encoding="UTF-8"?>
<svg xmlns="http://www.w3.org/2000/svg" xmlns:xlink="http://www.w3.org/1999/xlink" width="900pt" height="899.99999pt" viewBox="0 0 900 899.99999" version="1.2">
<defs>
<clipPath id="clip1">
  <path d="M 556 768 L 771 768 L 771 875.875 L 556 875.875 Z M 556 768 "/>
</clipPath>
<clipPath id="clip2">
  <path d="M 130 768 L 345 768 L 345 875.875 L 130 875.875 Z M 130 768 "/>
</clipPath>
<clipPath id="clip3">
  <path d="M 303 23.125 L 545 23.125 L 545 170 L 303 170 Z M 303 23.125 "/>
</clipPath>
</defs>
<g id="surface1">
<path style=" stroke:none;fill-rule:nonzero;fill:rgb(100%,100%,100%);fill-opacity:1;" d="M 836.929688 503.175781 L 757.003906 503.175781 L 757.003906 475.769531 L 836.929688 475.769531 L 836.542969 183.015625 L 64.339844 183.394531 L 64.71875 476.148438 L 117.621094 475.769531 L 117.621094 503.175781 L 64.339844 503.175781 C 57.128906 503.175781 50.335938 500.363281 45.234375 495.257812 C 40.132812 490.152344 37.320312 483.367188 37.320312 476.152344 L 37.320312 183.015625 C 37.320312 175.792969 40.132812 169.003906 45.234375 163.902344 C 50.335938 158.800781 57.125 155.988281 64.339844 155.988281 L 836.929688 155.988281 C 844.144531 155.988281 850.925781 158.800781 856.023438 163.902344 C 861.125 168.992188 863.945312 175.78125 863.945312 183.015625 L 863.945312 476.148438 C 863.945312 483.375 861.125 490.167969 856.015625 495.261719 C 850.925781 500.363281 844.132812 503.175781 836.929688 503.175781 Z M 836.929688 503.175781 "/>
<path style=" stroke:none;fill-rule:nonzero;fill:rgb(100%,100%,100%);fill-opacity:1;" d="M 330.75 475.769531 L 570.519531 475.769531 L 570.519531 503.175781 L 330.75 503.175781 Z M 330.75 475.769531 "/>
<path style=" stroke:none;fill-rule:nonzero;fill:rgb(100%,100%,100%);fill-opacity:1;" d="M 584.21875 609.390625 L 556.8125 609.390625 L 556.8125 409.527344 C 556.8125 398.765625 561 388.636719 568.617188 381.003906 C 576.277344 373.363281 586.394531 369.175781 597.160156 369.175781 C 607.910156 369.175781 618.042969 373.363281 625.667969 380.984375 C 633.304688 388.636719 637.5 398.769531 637.5 409.53125 L 637.5 542.773438 L 610.097656 542.773438 L 610.097656 409.53125 C 610.097656 406.082031 608.746094 402.820312 606.289062 400.363281 C 601.425781 395.511719 592.898438 395.484375 587.984375 400.390625 C 585.5625 402.820312 584.214844 406.082031 584.214844 409.53125 L 584.214844 609.390625 Z M 584.21875 609.390625 "/>
<path style=" stroke:none;fill-rule:nonzero;fill:rgb(100%,100%,100%);fill-opacity:1;" d="M 690.78125 542.769531 L 663.378906 542.769531 L 663.378906 495.5625 C 663.378906 492.109375 662.027344 488.851562 659.570312 486.398438 C 654.707031 481.546875 646.179688 481.519531 641.269531 486.421875 C 638.84375 488.851562 637.496094 492.113281 637.496094 495.570312 L 637.496094 542.773438 L 610.09375 542.773438 L 610.09375 495.570312 C 610.09375 484.8125 614.277344 474.679688 621.894531 467.046875 C 629.554688 459.410156 639.675781 455.214844 650.4375 455.214844 C 661.1875 455.214844 671.320312 459.410156 678.945312 467.027344 C 686.582031 474.683594 690.777344 484.816406 690.777344 495.574219 L 690.777344 542.769531 Z M 690.78125 542.769531 "/>
<path style=" stroke:none;fill-rule:nonzero;fill:rgb(100%,100%,100%);fill-opacity:1;" d="M 744.0625 542.769531 L 716.660156 542.769531 L 716.660156 495.5625 C 716.660156 492.109375 715.308594 488.851562 712.855469 486.398438 C 707.988281 481.546875 699.460938 481.519531 694.550781 486.421875 C 692.125 488.851562 690.777344 492.113281 690.777344 495.570312 L 690.777344 542.773438 L 663.375 542.773438 L 663.375 495.570312 C 663.375 484.8125 667.558594 474.679688 675.175781 467.046875 C 682.835938 459.410156 692.957031 455.214844 703.71875 455.214844 C 714.46875 455.214844 724.601562 459.410156 732.226562 467.027344 C 739.867188 474.683594 744.058594 484.816406 744.058594 495.574219 L 744.058594 542.769531 Z M 744.0625 542.769531 "/>
<path style=" stroke:none;fill-rule:nonzero;fill:rgb(100%,100%,100%);fill-opacity:1;" d="M 757.382812 782.605469 L 729.980469 782.605469 L 729.980469 740.144531 L 769.941406 633.550781 L 769.941406 516.121094 C 769.941406 512.667969 768.589844 509.414062 766.136719 506.957031 C 761.273438 502.101562 752.742188 502.074219 747.832031 506.976562 C 745.40625 509.414062 744.058594 512.671875 744.058594 516.125 L 744.058594 542.773438 L 716.65625 542.773438 L 716.65625 516.125 C 716.65625 505.367188 720.839844 495.234375 728.457031 487.605469 C 736.117188 479.96875 746.238281 475.777344 757 475.777344 C 767.75 475.777344 777.882812 479.96875 785.507812 487.582031 C 793.148438 495.238281 797.339844 505.371094 797.339844 516.128906 L 797.339844 638.53125 L 757.378906 745.125 L 757.378906 782.605469 Z M 757.382812 782.605469 "/>
<path style=" stroke:none;fill-rule:nonzero;fill:rgb(100%,100%,100%);fill-opacity:1;" d="M 597.539062 782.605469 L 570.136719 782.605469 L 570.136719 748.15625 C 555.046875 732.101562 503.53125 673.601562 503.53125 623.007812 L 503.53125 569.417969 C 503.53125 558.660156 507.71875 548.527344 515.335938 540.894531 C 522.996094 533.261719 533.113281 529.070312 543.878906 529.070312 C 554.628906 529.070312 564.757812 533.261719 572.386719 540.875 C 580.023438 548.53125 584.21875 558.664062 584.21875 569.421875 L 556.8125 569.421875 C 556.8125 565.96875 555.464844 562.714844 553.007812 560.257812 C 548.144531 555.402344 539.613281 555.375 534.703125 560.28125 C 532.277344 562.714844 530.933594 565.972656 530.933594 569.425781 L 530.933594 623.015625 C 530.933594 661.738281 576.121094 715.5 593.527344 732.953125 L 597.527344 736.960938 Z M 597.539062 782.605469 "/>
<g clip-path="url(#clip1)" clip-rule="nonzero">
<path style=" stroke:none;fill-rule:nonzero;fill:rgb(100%,100%,100%);fill-opacity:1;" d="M 770.703125 875.875 L 743.300781 875.875 L 743.300781 795.929688 L 583.839844 796.308594 L 584.21875 875.875 L 556.8125 875.875 L 556.8125 795.929688 C 556.8125 788.730469 559.609375 781.953125 564.703125 776.839844 C 569.867188 771.699219 576.644531 768.902344 583.839844 768.902344 L 743.683594 768.902344 C 750.878906 768.902344 757.65625 771.699219 762.765625 776.792969 C 767.886719 781.921875 770.703125 788.710938 770.703125 795.929688 Z M 770.703125 875.875 "/>
</g>
<path style=" stroke:none;fill-rule:nonzero;fill:rgb(100%,100%,100%);fill-opacity:1;" d="M 344.453125 609.390625 L 317.050781 609.390625 L 317.050781 436.175781 C 317.050781 432.726562 315.703125 429.464844 313.253906 427.007812 C 308.378906 422.15625 299.859375 422.128906 294.949219 427.03125 C 292.523438 429.464844 291.171875 432.726562 291.171875 436.175781 L 291.171875 542.769531 L 263.769531 542.769531 L 263.769531 436.175781 C 263.769531 425.414062 267.960938 415.285156 275.574219 407.652344 C 283.222656 400.011719 293.355469 395.820312 304.113281 395.820312 C 314.871094 395.820312 325.003906 400.011719 332.625 407.632812 C 340.265625 415.285156 344.453125 425.417969 344.453125 436.179688 Z M 344.453125 609.390625 "/>
<path style=" stroke:none;fill-rule:nonzero;fill:rgb(100%,100%,100%);fill-opacity:1;" d="M 291.171875 542.769531 L 263.769531 542.769531 L 263.769531 409.527344 C 263.769531 406.078125 262.421875 402.816406 259.96875 400.359375 C 255.09375 395.507812 246.5625 395.484375 241.671875 400.375 C 239.242188 402.816406 237.890625 406.066406 237.890625 409.527344 L 237.890625 542.769531 L 210.484375 542.769531 L 210.484375 409.527344 C 210.484375 398.753906 214.679688 388.625 222.296875 380.996094 C 229.933594 373.363281 240.058594 369.175781 250.828125 369.175781 C 261.585938 369.175781 271.71875 373.363281 279.339844 380.984375 C 286.976562 388.636719 291.167969 398.769531 291.167969 409.53125 L 291.167969 542.769531 Z M 291.171875 542.769531 "/>
<path style=" stroke:none;fill-rule:nonzero;fill:rgb(100%,100%,100%);fill-opacity:1;" d="M 237.890625 542.769531 L 210.484375 542.769531 L 210.484375 436.175781 C 210.484375 432.726562 209.140625 429.472656 206.6875 427.015625 C 201.8125 422.152344 193.28125 422.136719 188.390625 427.027344 C 185.960938 429.46875 184.609375 432.722656 184.609375 436.179688 L 184.609375 542.773438 L 157.203125 542.773438 L 157.203125 436.179688 C 157.203125 425.410156 161.398438 415.277344 169.015625 407.648438 C 176.648438 400.019531 186.777344 395.828125 197.546875 395.828125 C 208.308594 395.828125 218.4375 400.019531 226.058594 407.640625 C 233.695312 415.28125 237.886719 425.417969 237.886719 436.183594 L 237.886719 542.769531 Z M 237.890625 542.769531 "/>
<path style=" stroke:none;fill-rule:nonzero;fill:rgb(100%,100%,100%);fill-opacity:1;" d="M 171.289062 782.605469 L 143.882812 782.605469 L 143.882812 745.117188 L 103.921875 638.523438 L 103.921875 462.824219 C 103.921875 452.050781 108.117188 441.921875 115.734375 434.292969 C 123.367188 426.660156 133.496094 422.472656 144.261719 422.472656 C 155.027344 422.472656 165.152344 426.660156 172.777344 434.285156 C 180.414062 441.925781 184.605469 452.0625 184.605469 462.828125 L 184.605469 542.773438 L 157.199219 542.773438 L 157.199219 462.828125 C 157.199219 459.375 155.851562 456.125 153.402344 453.667969 C 148.527344 448.804688 139.996094 448.789062 135.101562 453.679688 C 132.671875 456.121094 131.320312 459.375 131.320312 462.832031 L 131.320312 633.558594 L 171.285156 740.152344 L 171.285156 782.605469 Z M 171.289062 782.605469 "/>
<path style=" stroke:none;fill-rule:nonzero;fill:rgb(100%,100%,100%);fill-opacity:1;" d="M 331.132812 782.605469 L 303.730469 782.605469 L 303.730469 736.964844 L 307.734375 732.949219 C 325.148438 715.496094 370.332031 661.734375 370.332031 623.011719 L 370.332031 569.421875 C 370.332031 565.96875 368.984375 562.714844 366.535156 560.257812 C 361.660156 555.402344 353.140625 555.375 348.230469 560.28125 C 345.804688 562.714844 344.453125 565.972656 344.453125 569.425781 L 317.050781 569.425781 C 317.050781 558.667969 321.246094 548.535156 328.855469 540.90625 C 336.503906 533.269531 346.636719 529.078125 357.394531 529.078125 C 368.152344 529.078125 378.285156 533.269531 385.90625 540.882812 C 393.546875 548.542969 397.734375 558.671875 397.734375 569.429688 L 397.734375 623.019531 C 397.734375 673.609375 346.226562 732.113281 331.132812 748.171875 Z M 331.132812 782.605469 "/>
<g clip-path="url(#clip2)" clip-rule="nonzero">
<path style=" stroke:none;fill-rule:nonzero;fill:rgb(100%,100%,100%);fill-opacity:1;" d="M 344.453125 875.875 L 317.050781 875.875 L 317.050781 795.929688 L 157.582031 796.308594 L 157.96875 875.875 L 130.5625 875.875 L 130.5625 795.929688 C 130.5625 788.722656 133.371094 781.9375 138.464844 776.832031 C 143.617188 771.703125 150.386719 768.90625 157.582031 768.90625 L 317.429688 768.90625 C 324.625 768.90625 331.398438 771.703125 336.511719 776.796875 C 341.644531 781.941406 344.449219 788.726562 344.449219 795.933594 L 344.449219 875.875 Z M 344.453125 875.875 "/>
</g>
<g clip-path="url(#clip3)" clip-rule="nonzero">
<path style=" stroke:none;fill-rule:nonzero;fill:rgb(100%,100%,100%);fill-opacity:1;" d="M 464.332031 169.691406 L 436.933594 169.691406 L 436.933594 143.042969 C 436.933594 139.578125 435.589844 136.332031 433.144531 133.898438 C 430.695312 131.445312 427.449219 130.097656 423.992188 130.097656 L 344.070312 130.097656 C 333.304688 130.097656 323.167969 125.898438 315.546875 118.273438 C 307.925781 110.652344 303.730469 100.523438 303.730469 89.746094 C 303.730469 78.949219 307.933594 68.804688 315.558594 61.199219 C 323.164062 53.589844 333.289062 49.386719 344.070312 49.386719 L 503.917969 49.386719 C 507.363281 49.386719 510.609375 48.042969 513.0625 45.59375 C 515.5 43.152344 516.855469 39.898438 516.855469 36.445312 L 516.855469 23.125 L 544.261719 23.125 L 544.261719 36.449219 C 544.261719 47.214844 540.066406 57.34375 532.449219 64.96875 C 524.816406 72.601562 514.691406 76.800781 503.921875 76.800781 L 344.070312 76.800781 C 340.613281 76.800781 337.359375 78.144531 334.917969 80.589844 C 332.46875 83.035156 331.128906 86.28125 331.128906 89.746094 C 331.128906 93.203125 332.480469 96.449219 334.917969 98.894531 C 337.371094 101.34375 340.613281 102.691406 344.070312 102.691406 L 423.992188 102.691406 C 434.765625 102.691406 444.898438 106.890625 452.515625 114.507812 C 460.136719 122.109375 464.328125 132.246094 464.328125 143.042969 L 464.328125 169.691406 Z M 464.332031 169.691406 "/>
</g>
<path style=" stroke:none;fill-rule:nonzero;fill:rgb(100%,100%,100%);fill-opacity:1;" d="M 117.621094 209.285156 L 144.261719 209.285156 L 144.261719 236.695312 L 117.621094 236.695312 Z M 117.621094 209.285156 "/>
<path style=" stroke:none;fill-rule:nonzero;fill:rgb(100%,100%,100%);fill-opacity:1;" d="M 170.902344 209.285156 L 197.546875 209.285156 L 197.546875 236.695312 L 170.902344 236.695312 Z M 170.902344 209.285156 "/>
<path style=" stroke:none;fill-rule:nonzero;fill:rgb(100%,100%,100%);fill-opacity:1;" d="M 224.1875 209.285156 L 250.828125 209.285156 L 250.828125 236.695312 L 224.1875 236.695312 Z M 224.1875 209.285156 "/>
<path style=" stroke:none;fill-rule:nonzero;fill:rgb(100%,100%,100%);fill-opacity:1;" d="M 277.46875 209.285156 L 304.109375 209.285156 L 304.109375 236.695312 L 277.46875 236.695312 Z M 277.46875 209.285156 "/>
<path style=" stroke:none;fill-rule:nonzero;fill:rgb(100%,100%,100%);fill-opacity:1;" d="M 330.75 209.285156 L 357.390625 209.285156 L 357.390625 236.695312 L 330.75 236.695312 Z M 330.75 209.285156 "/>
<path style=" stroke:none;fill-rule:nonzero;fill:rgb(100%,100%,100%);fill-opacity:1;" d="M 384.03125 209.285156 L 410.671875 209.285156 L 410.671875 236.695312 L 384.03125 236.695312 Z M 384.03125 209.285156 "/>
<path style=" stroke:none;fill-rule:nonzero;fill:rgb(100%,100%,100%);fill-opacity:1;" d="M 437.3125 209.285156 L 463.953125 209.285156 L 463.953125 236.695312 L 437.3125 236.695312 Z M 437.3125 209.285156 "/>
<path style=" stroke:none;fill-rule:nonzero;fill:rgb(100%,100%,100%);fill-opacity:1;" d="M 490.59375 209.285156 L 517.238281 209.285156 L 517.238281 236.695312 L 490.59375 236.695312 Z M 490.59375 209.285156 "/>
<path style=" stroke:none;fill-rule:nonzero;fill:rgb(100%,100%,100%);fill-opacity:1;" d="M 543.878906 209.285156 L 570.519531 209.285156 L 570.519531 236.695312 L 543.878906 236.695312 Z M 543.878906 209.285156 "/>
<path style=" stroke:none;fill-rule:nonzero;fill:rgb(100%,100%,100%);fill-opacity:1;" d="M 597.160156 209.285156 L 623.800781 209.285156 L 623.800781 236.695312 L 597.160156 236.695312 Z M 597.160156 209.285156 "/>
<path style=" stroke:none;fill-rule:nonzero;fill:rgb(100%,100%,100%);fill-opacity:1;" d="M 650.441406 209.285156 L 677.082031 209.285156 L 677.082031 236.695312 L 650.441406 236.695312 Z M 650.441406 209.285156 "/>
<path style=" stroke:none;fill-rule:nonzero;fill:rgb(100%,100%,100%);fill-opacity:1;" d="M 703.722656 209.285156 L 730.363281 209.285156 L 730.363281 236.695312 L 703.722656 236.695312 Z M 703.722656 209.285156 "/>
<path style=" stroke:none;fill-rule:nonzero;fill:rgb(100%,100%,100%);fill-opacity:1;" d="M 757.003906 209.285156 L 783.644531 209.285156 L 783.644531 236.695312 L 757.003906 236.695312 Z M 757.003906 209.285156 "/>
<path style=" stroke:none;fill-rule:nonzero;fill:rgb(100%,100%,100%);fill-opacity:1;" d="M 90.980469 262.582031 L 117.621094 262.582031 L 117.621094 289.992188 L 90.980469 289.992188 Z M 90.980469 262.582031 "/>
<path style=" stroke:none;fill-rule:nonzero;fill:rgb(100%,100%,100%);fill-opacity:1;" d="M 144.261719 262.582031 L 170.902344 262.582031 L 170.902344 289.992188 L 144.261719 289.992188 Z M 144.261719 262.582031 "/>
<path style=" stroke:none;fill-rule:nonzero;fill:rgb(100%,100%,100%);fill-opacity:1;" d="M 197.546875 262.582031 L 224.1875 262.582031 L 224.1875 289.992188 L 197.546875 289.992188 Z M 197.546875 262.582031 "/>
<path style=" stroke:none;fill-rule:nonzero;fill:rgb(100%,100%,100%);fill-opacity:1;" d="M 250.828125 262.582031 L 277.46875 262.582031 L 277.46875 289.992188 L 250.828125 289.992188 Z M 250.828125 262.582031 "/>
<path style=" stroke:none;fill-rule:nonzero;fill:rgb(100%,100%,100%);fill-opacity:1;" d="M 304.109375 262.582031 L 330.75 262.582031 L 330.75 289.992188 L 304.109375 289.992188 Z M 304.109375 262.582031 "/>
<path style=" stroke:none;fill-rule:nonzero;fill:rgb(100%,100%,100%);fill-opacity:1;" d="M 357.390625 262.582031 L 384.03125 262.582031 L 384.03125 289.992188 L 357.390625 289.992188 Z M 357.390625 262.582031 "/>
<path style=" stroke:none;fill-rule:nonzero;fill:rgb(100%,100%,100%);fill-opacity:1;" d="M 410.671875 262.582031 L 437.3125 262.582031 L 437.3125 289.992188 L 410.671875 289.992188 Z M 410.671875 262.582031 "/>
<path style=" stroke:none;fill-rule:nonzero;fill:rgb(100%,100%,100%);fill-opacity:1;" d="M 463.953125 262.582031 L 490.59375 262.582031 L 490.59375 289.992188 L 463.953125 289.992188 Z M 463.953125 262.582031 "/>
<path style=" stroke:none;fill-rule:nonzero;fill:rgb(100%,100%,100%);fill-opacity:1;" d="M 517.238281 262.582031 L 543.878906 262.582031 L 543.878906 289.992188 L 517.238281 289.992188 Z M 517.238281 262.582031 "/>
<path style=" stroke:none;fill-rule:nonzero;fill:rgb(100%,100%,100%);fill-opacity:1;" d="M 570.519531 262.582031 L 597.160156 262.582031 L 597.160156 289.992188 L 570.519531 289.992188 Z M 570.519531 262.582031 "/>
<path style=" stroke:none;fill-rule:nonzero;fill:rgb(100%,100%,100%);fill-opacity:1;" d="M 623.800781 262.582031 L 650.441406 262.582031 L 650.441406 289.992188 L 623.800781 289.992188 Z M 623.800781 262.582031 "/>
<path style=" stroke:none;fill-rule:nonzero;fill:rgb(100%,100%,100%);fill-opacity:1;" d="M 677.082031 262.582031 L 703.722656 262.582031 L 703.722656 289.992188 L 677.082031 289.992188 Z M 677.082031 262.582031 "/>
<path style=" stroke:none;fill-rule:nonzero;fill:rgb(100%,100%,100%);fill-opacity:1;" d="M 730.363281 262.582031 L 757.003906 262.582031 L 757.003906 289.992188 L 730.363281 289.992188 Z M 730.363281 262.582031 "/>
<path style=" stroke:none;fill-rule:nonzero;fill:rgb(100%,100%,100%);fill-opacity:1;" d="M 783.644531 262.582031 L 810.285156 262.582031 L 810.285156 289.992188 L 783.644531 289.992188 Z M 783.644531 262.582031 "/>
<path style=" stroke:none;fill-rule:nonzero;fill:rgb(100%,100%,100%);fill-opacity:1;" d="M 117.621094 315.878906 L 144.261719 315.878906 L 144.261719 343.289062 L 117.621094 343.289062 Z M 117.621094 315.878906 "/>
<path style=" stroke:none;fill-rule:nonzero;fill:rgb(100%,100%,100%);fill-opacity:1;" d="M 170.902344 315.878906 L 197.546875 315.878906 L 197.546875 343.289062 L 170.902344 343.289062 Z M 170.902344 315.878906 "/>
<path style=" stroke:none;fill-rule:nonzero;fill:rgb(100%,100%,100%);fill-opacity:1;" d="M 224.1875 315.878906 L 250.828125 315.878906 L 250.828125 343.289062 L 224.1875 343.289062 Z M 224.1875 315.878906 "/>
<path style=" stroke:none;fill-rule:nonzero;fill:rgb(100%,100%,100%);fill-opacity:1;" d="M 277.46875 315.878906 L 304.109375 315.878906 L 304.109375 343.289062 L 277.46875 343.289062 Z M 277.46875 315.878906 "/>
<path style=" stroke:none;fill-rule:nonzero;fill:rgb(100%,100%,100%);fill-opacity:1;" d="M 330.75 315.878906 L 357.390625 315.878906 L 357.390625 343.289062 L 330.75 343.289062 Z M 330.75 315.878906 "/>
<path style=" stroke:none;fill-rule:nonzero;fill:rgb(100%,100%,100%);fill-opacity:1;" d="M 384.03125 315.878906 L 410.671875 315.878906 L 410.671875 343.289062 L 384.03125 343.289062 Z M 384.03125 315.878906 "/>
<path style=" stroke:none;fill-rule:nonzero;fill:rgb(100%,100%,100%);fill-opacity:1;" d="M 437.3125 315.878906 L 463.953125 315.878906 L 463.953125 343.289062 L 437.3125 343.289062 Z M 437.3125 315.878906 "/>
<path style=" stroke:none;fill-rule:nonzero;fill:rgb(100%,100%,100%);fill-opacity:1;" d="M 490.59375 315.878906 L 517.238281 315.878906 L 517.238281 343.289062 L 490.59375 343.289062 Z M 490.59375 315.878906 "/>
<path style=" stroke:none;fill-rule:nonzero;fill:rgb(100%,100%,100%);fill-opacity:1;" d="M 543.878906 315.878906 L 570.519531 315.878906 L 570.519531 343.289062 L 543.878906 343.289062 Z M 543.878906 315.878906 "/>
<path style=" stroke:none;fill-rule:nonzero;fill:rgb(100%,100%,100%);fill-opacity:1;" d="M 597.160156 315.878906 L 623.800781 315.878906 L 623.800781 343.289062 L 597.160156 343.289062 Z M 597.160156 315.878906 "/>
<path style=" stroke:none;fill-rule:nonzero;fill:rgb(100%,100%,100%);fill-opacity:1;" d="M 650.441406 315.878906 L 677.082031 315.878906 L 677.082031 343.289062 L 650.441406 343.289062 Z M 650.441406 315.878906 "/>
<path style=" stroke:none;fill-rule:nonzero;fill:rgb(100%,100%,100%);fill-opacity:1;" d="M 703.722656 315.878906 L 730.363281 315.878906 L 730.363281 343.289062 L 703.722656 343.289062 Z M 703.722656 315.878906 "/>
<path style=" stroke:none;fill-rule:nonzero;fill:rgb(100%,100%,100%);fill-opacity:1;" d="M 757.003906 315.878906 L 783.644531 315.878906 L 783.644531 343.289062 L 757.003906 343.289062 Z M 757.003906 315.878906 "/>
<path style=" stroke:none;fill-rule:nonzero;fill:rgb(100%,100%,100%);fill-opacity:1;" d="M 90.980469 369.175781 L 117.621094 369.175781 L 117.621094 396.585938 L 90.980469 396.585938 Z M 90.980469 369.175781 "/>
<path style=" stroke:none;fill-rule:nonzero;fill:rgb(100%,100%,100%);fill-opacity:1;" d="M 144.261719 369.175781 L 170.902344 369.175781 L 170.902344 396.585938 L 144.261719 396.585938 Z M 144.261719 369.175781 "/>
<path style=" stroke:none;fill-rule:nonzero;fill:rgb(100%,100%,100%);fill-opacity:1;" d="M 357.390625 369.175781 L 384.03125 369.175781 L 384.03125 396.585938 L 357.390625 396.585938 Z M 357.390625 369.175781 "/>
<path style=" stroke:none;fill-rule:nonzero;fill:rgb(100%,100%,100%);fill-opacity:1;" d="M 410.671875 369.175781 L 437.3125 369.175781 L 437.3125 396.585938 L 410.671875 396.585938 Z M 410.671875 369.175781 "/>
<path style=" stroke:none;fill-rule:nonzero;fill:rgb(100%,100%,100%);fill-opacity:1;" d="M 463.953125 369.175781 L 490.59375 369.175781 L 490.59375 396.585938 L 463.953125 396.585938 Z M 463.953125 369.175781 "/>
<path style=" stroke:none;fill-rule:nonzero;fill:rgb(100%,100%,100%);fill-opacity:1;" d="M 517.238281 369.175781 L 543.878906 369.175781 L 543.878906 396.585938 L 517.238281 396.585938 Z M 517.238281 369.175781 "/>
<path style=" stroke:none;fill-rule:nonzero;fill:rgb(100%,100%,100%);fill-opacity:1;" d="M 730.363281 369.175781 L 757.003906 369.175781 L 757.003906 396.585938 L 730.363281 396.585938 Z M 730.363281 369.175781 "/>
<path style=" stroke:none;fill-rule:nonzero;fill:rgb(100%,100%,100%);fill-opacity:1;" d="M 677.082031 369.175781 L 703.722656 369.175781 L 703.722656 396.585938 L 677.082031 396.585938 Z M 677.082031 369.175781 "/>
<path style=" stroke:none;fill-rule:nonzero;fill:rgb(100%,100%,100%);fill-opacity:1;" d="M 783.644531 369.175781 L 810.285156 369.175781 L 810.285156 396.585938 L 783.644531 396.585938 Z M 783.644531 369.175781 "/>
<path style=" stroke:none;fill-rule:nonzero;fill:rgb(100%,100%,100%);fill-opacity:1;" d="M 384.03125 422.472656 L 517.238281 422.472656 L 517.238281 449.882812 L 384.03125 449.882812 Z M 384.03125 422.472656 "/>
</g>
</svg>
