<?xml version="1.0" encoding="UTF-8"?>
<svg xmlns="http://www.w3.org/2000/svg" xmlns:xlink="http://www.w3.org/1999/xlink" width="900pt" height="899.99999pt" viewBox="0 0 900 899.99999" version="1.2">
<defs>
<clipPath id="clip1">
  <path d="M 23.578125 21.527344 L 880.078125 21.527344 L 880.078125 878.027344 L 23.578125 878.027344 Z M 23.578125 21.527344 "/>
</clipPath>
</defs>
<g id="surface1">
<g clip-path="url(#clip1)" clip-rule="nonzero">
<path style=" stroke:none;fill-rule:nonzero;fill:rgb(100%,100%,100%);fill-opacity:1;" d="M 451.828125 21.527344 C 215.308594 21.527344 23.578125 213.261719 23.578125 449.777344 C 23.578125 686.292969 215.308594 878.027344 451.828125 878.027344 C 688.34375 878.027344 880.078125 686.292969 880.078125 449.777344 C 880.078125 213.261719 688.34375 21.527344 451.828125 21.527344 Z M 618.632812 365.796875 C 621.046875 368.5625 624.640625 369.828125 629.496094 369.535156 C 641.375 368.832031 650.433594 365.117188 655.683594 358.792969 C 657.863281 356.171875 659.324219 353.160156 660.03125 349.867188 C 662.496094 355.71875 665.082031 359.035156 669.753906 359.035156 C 671.324219 359.035156 675.328125 359.035156 683.03125 350.617188 C 686.523438 359.339844 692.722656 369.003906 703.125 369.566406 C 711.164062 370.007812 720.886719 369.910156 727.296875 369.769531 L 727.296875 388.054688 C 709.496094 389.777344 689.945312 390.261719 685.59375 388.089844 C 672.773438 381.6875 658.789062 390.15625 658.761719 390.207031 C 652.429688 393.320312 637.113281 398.894531 630.257812 396.207031 C 628.992188 395.710938 628.277344 395.011719 627.808594 393.792969 C 626.507812 390.441406 625.417969 387.113281 624.386719 383.96875 C 620.769531 372.996094 616.378906 359.636719 604.082031 359.636719 C 602.539062 359.636719 600.875 359.84375 599.070312 360.292969 C 595.710938 361.132812 589.167969 361.808594 582.25 362.519531 C 577.085938 363.054688 572.210938 363.585938 567.671875 364.175781 C 569.90625 362.792969 572.226562 361.074219 574.617188 358.949219 C 590.144531 345.152344 606.425781 335.90625 613.96875 336.398438 C 615.5 336.503906 616.097656 336.980469 616.492188 337.433594 C 618.753906 340.070312 618.117188 344.382812 616.976562 350.1875 C 615.941406 355.429688 614.773438 361.375 618.632812 365.796875 Z M 621.144531 244.484375 C 625.847656 244.824219 630.359375 244.125 634.226562 241.421875 C 639.355469 237.835938 642.125 231.679688 642.695312 222.613281 C 643.851562 204.28125 646.414062 193.75 648.320312 188.394531 C 649.785156 193.804688 651.269531 202.117188 652.089844 210.160156 C 652.449219 213.640625 655.214844 216.421875 658.664062 216.164062 C 658.671875 216.164062 659.199219 216.210938 659.441406 216.503906 C 659.867188 217.019531 660.238281 218.609375 659.898438 221.367188 C 658.398438 233.445312 648.203125 255.757812 637.628906 255.757812 C 632.871094 255.757812 628.507812 251.53125 624.285156 247.441406 C 623.253906 246.441406 622.214844 245.433594 621.144531 244.484375 Z M 426.367188 49.183594 C 428.953125 49.019531 431.53125 48.855469 434.125 48.742188 C 428.316406 52.1875 422.820312 55.707031 417.90625 59.230469 C 421.40625 55.378906 424.183594 52.097656 426.367188 49.183594 Z M 851.832031 416.691406 C 852.179688 420.886719 852.578125 425.074219 852.789062 429.304688 C 852.023438 428.90625 851.199219 428.53125 850.265625 428.203125 C 846.691406 426.933594 841.980469 425.585938 836.894531 424.136719 C 830.058594 422.195312 817.390625 418.582031 811.175781 415.34375 C 819.113281 414.195312 835.660156 414.664062 851.832031 416.691406 Z M 783.121094 488.066406 C 819.035156 482.941406 839.648438 475.546875 844.378906 466.085938 C 845.441406 463.960938 847.898438 461.011719 850.273438 458.160156 C 851.257812 456.976562 852.234375 455.785156 853.1875 454.585938 C 850.59375 673.746094 671.589844 851.261719 451.828125 851.261719 C 236.269531 851.261719 59.910156 680.484375 50.78125 467.136719 C 56.320312 468.414062 62.507812 467.914062 68.917969 467.378906 C 78.589844 466.574219 89.535156 465.671875 102.507812 469.511719 C 127.445312 476.894531 128.214844 480.453125 130.070312 489.054688 C 131.238281 494.492188 132.847656 501.933594 138.886719 511.589844 C 144.230469 520.140625 152.136719 525.523438 161.742188 527.160156 C 163.984375 527.542969 166.238281 527.714844 168.5 527.714844 C 185.914062 527.714844 203.003906 517.394531 208.164062 513.269531 C 212.652344 509.683594 212.398438 505.851562 211.851562 503.882812 C 210.117188 497.679688 203.304688 496.789062 192.984375 495.445312 C 189.324219 494.972656 185.066406 494.417969 181.613281 493.542969 C 184.660156 490.671875 188.195312 486.851562 188.195312 481.441406 C 188.195312 474.171875 182.890625 470.746094 178.628906 467.992188 C 175.132812 465.730469 171.164062 463.164062 167.890625 457.945312 C 165.511719 454.128906 165.933594 453.261719 167.703125 449.613281 C 169.550781 445.804688 172.347656 440.042969 170.367188 431.144531 C 169.25 426.132812 166.148438 424.183594 164.394531 423.472656 C 158.761719 421.175781 153.261719 424.742188 146.910156 428.886719 C 142.386719 431.832031 135.554688 436.242188 132.257812 435.253906 C 130.410156 434.679688 128.964844 431.746094 128.265625 430.046875 C 126.1875 425.011719 127.402344 422.257812 128.496094 420.625 C 134.855469 411.128906 159.878906 407.1875 171.863281 407.1875 C 174.363281 407.1875 179.796875 411.710938 183.765625 415.015625 C 191.839844 421.738281 201.886719 430.101562 212.757812 426.019531 C 221.28125 422.828125 227.519531 409.640625 238.714844 384.660156 C 247.183594 365.769531 256.777344 344.359375 266.542969 334.597656 C 278.941406 322.203125 291.730469 323.074219 304.105469 323.933594 C 310.097656 324.34375 315.769531 324.734375 321.082031 323.554688 C 325.566406 322.558594 331.039062 320.773438 333.609375 315.769531 C 336.667969 309.828125 334.027344 303.640625 330.042969 294.269531 C 329.347656 292.644531 328.597656 290.886719 327.8125 288.984375 C 330.722656 289.347656 334.015625 289.195312 337.609375 288.125 C 338.144531 287.964844 338.449219 287.933594 338.492188 287.898438 C 339.453125 288.707031 340.90625 292.46875 341.785156 294.742188 C 344.980469 303.011719 350.21875 316.902344 368.253906 315.675781 C 375.183594 315.210938 380.1875 312.824219 383.128906 308.582031 C 388.539062 300.757812 385.277344 289.949219 381.148438 276.269531 C 378.5 267.496094 375.496094 257.550781 374.46875 247.273438 C 373.234375 234.945312 369.445312 227.042969 362.878906 223.113281 C 354.148438 217.886719 344.363281 221.945312 338.511719 224.367188 C 338.492188 224.375 338.472656 224.382812 338.449219 224.390625 C 337.445312 222.257812 336.214844 218.96875 335.25 216.359375 C 331.765625 207.003906 327.828125 196.398438 320.457031 190.820312 C 317.757812 188.777344 314.554688 188.015625 311.425781 188.679688 C 304.230469 190.210938 299.675781 198.5 294.394531 208.089844 C 291.652344 213.078125 285.945312 223.453125 283.203125 224 C 270.140625 219.640625 262.375 231.75 258.402344 238.554688 C 256.402344 235.9375 254.917969 232.558594 254.019531 221.640625 C 253.398438 214.125 280.105469 196.570312 294.453125 187.140625 C 310.234375 176.769531 323.859375 167.8125 328.578125 159.953125 C 330.492188 156.757812 334.058594 150.820312 330.054688 146.074219 C 326.09375 141.40625 320.597656 143.574219 314.222656 146.070312 C 309.613281 147.878906 302.851562 150.523438 297.910156 150.074219 C 298.707031 147.453125 301.40625 143.113281 302.40625 141.503906 C 304.242188 138.554688 307.3125 133.609375 302.898438 129.652344 C 298.464844 125.675781 293.695312 129.390625 291.410156 131.179688 C 280.632812 139.640625 253.214844 149.816406 244.136719 149.816406 C 242.511719 149.816406 241.464844 149.773438 240.804688 149.714844 C 240.503906 148.066406 240.289062 144.957031 240.078125 141.929688 C 239.9375 139.9375 239.777344 137.664062 239.5625 135.082031 C 239.085938 129.347656 236.472656 124.460938 232.003906 120.964844 C 230.316406 119.640625 228.414062 118.59375 226.410156 117.734375 C 239.519531 108.804688 253.21875 100.707031 267.375 93.351562 C 272.40625 98.300781 285.15625 105.660156 321.460938 113.296875 C 331.25 115.355469 337.941406 118.449219 343.320312 120.929688 C 348.238281 123.199219 352.585938 124.925781 356.65625 124.925781 C 362.6875 124.925781 368.09375 121.140625 373.796875 109.742188 C 377.324219 102.6875 387.027344 91.890625 397.113281 81.21875 C 396.394531 83.335938 396.171875 85.386719 396.601562 87.332031 C 398.511719 95.910156 402.339844 103.425781 405.410156 109.460938 C 406.605469 111.804688 408.125 114.792969 408.859375 116.738281 C 408.050781 117.289062 407.019531 117.933594 406.167969 118.464844 C 400.621094 121.929688 393.015625 126.679688 391.648438 135.285156 C 390.761719 140.894531 392.863281 146.78125 397.910156 152.785156 C 406.625 163.171875 404.253906 170.707031 401.253906 180.246094 C 399.679688 185.253906 398.054688 190.425781 398.054688 196.15625 C 398.054688 198.957031 397.636719 203.511719 397.191406 208.332031 C 395.078125 231.320312 394.308594 248.070312 403.671875 254.28125 C 405.292969 255.359375 407.546875 256.304688 410.457031 256.304688 C 412.886719 256.304688 415.78125 255.640625 419.148438 253.839844 C 430.027344 248.019531 433.269531 241.894531 437.019531 234.800781 C 441.644531 226.050781 447.984375 214.066406 473.371094 192.152344 C 518.464844 153.207031 552.734375 79.878906 554.300781 61.597656 C 617.660156 78.335938 674.949219 110.175781 722.011719 153.074219 C 716.425781 162.941406 709.039062 171.867188 703.066406 170.789062 C 700.871094 170.390625 700.789062 170.375 700.511719 164.507812 C 700.121094 155.953125 699.453125 141.628906 675.851562 136.992188 C 642.183594 130.371094 594.371094 145.625 583.191406 175.207031 C 575.480469 195.601562 574.722656 215.554688 581.21875 227.28125 C 584.582031 233.347656 589.75 237.230469 596.167969 238.511719 C 598.875 239.054688 601.800781 239.910156 604.898438 240.828125 C 602.996094 241.953125 601.304688 243.703125 599.835938 246.058594 C 586.308594 267.703125 570.199219 284.578125 565.359375 284.652344 C 556.941406 284.652344 550.222656 292.109375 547.382812 304.609375 C 546.25 309.578125 545.550781 315.453125 547.023438 319.734375 C 546.941406 319.8125 546.871094 319.894531 546.792969 319.980469 C 541.636719 317.347656 533.488281 314.292969 526.921875 316.847656 C 522.8125 318.4375 519.898438 321.914062 518.722656 326.636719 C 515.785156 338.355469 518.472656 354.394531 524.714844 362.390625 C 528.757812 367.574219 533.332031 368.664062 536.449219 368.664062 C 538.238281 368.664062 540.03125 368.863281 541.859375 369.054688 C 542.53125 369.125 543.226562 369.199219 543.945312 369.265625 C 538.429688 371.355469 534.421875 374.101562 532.246094 377.914062 L 529.367188 383.023438 C 524.183594 392.277344 518.824219 401.847656 513.003906 406.503906 L 511.78125 407.476562 C 503.769531 413.832031 491.660156 423.441406 486.5625 445.535156 C 481.109375 469.164062 493 520.035156 523.621094 527.523438 C 543.570312 532.40625 568.03125 530.28125 585.894531 528.722656 C 591.945312 528.199219 597.167969 527.746094 600.753906 527.714844 C 607.898438 527.707031 611.433594 531.382812 613.296875 551.988281 C 614.277344 562.75 618.765625 569.472656 622.726562 575.402344 C 626.089844 580.441406 628.75 584.425781 629.359375 590.574219 C 630.019531 597.144531 629.476562 601.652344 628.789062 607.363281 C 627.914062 614.644531 626.828125 623.703125 627.742188 640.035156 C 628.109375 646.683594 627.945312 653.921875 627.777344 661.589844 C 627.214844 686.796875 626.574219 715.359375 647.835938 724.46875 C 651 725.824219 653.691406 727.214844 656.097656 728.453125 C 662.226562 731.609375 667.179688 733.601562 672.042969 733.601562 C 682.632812 733.597656 692.78125 724.148438 713.628906 696.683594 C 750.839844 647.648438 758.480469 623.863281 764.605469 597.867188 C 770.910156 571.09375 790.167969 546.992188 805.394531 535.929688 C 820.511719 524.9375 831.300781 507.6875 828.480469 499.019531 C 827.355469 495.5625 824.308594 493.324219 820.722656 493.324219 C 820.003906 493.324219 818.539062 493.464844 816.515625 493.707031 C 805.855469 494.960938 773.417969 498.800781 764.171875 478.648438 C 763.472656 477.136719 762.761719 475.621094 762.027344 474.101562 C 768.65625 483.273438 775.53125 489.128906 783.121094 488.066406 Z M 783.121094 488.066406 "/>
</g>
<path style=" stroke:none;fill-rule:nonzero;fill:rgb(100%,100%,100%);fill-opacity:1;" d="M 413.058594 559.40625 C 395.617188 554.28125 377.742188 541.296875 361.976562 529.835938 C 354.351562 524.300781 347.148438 519.070312 340.691406 515.257812 C 322.585938 504.574219 293.5 499.5 286.671875 498.421875 C 281.742188 495.316406 277.105469 491.882812 272.601562 488.550781 C 262.492188 481.074219 254.5 475.167969 246.550781 475.167969 C 242.777344 475.167969 237.460938 476.539062 233.570312 483.082031 C 226.050781 495.722656 218.070312 508.246094 203.210938 522.46875 C 199.925781 525.617188 195.246094 528.667969 190.71875 531.617188 C 180.503906 538.285156 169.9375 545.175781 168.753906 556.558594 C 167.96875 564.125 171.636719 571.855469 179.972656 580.191406 C 189.175781 589.382812 200.023438 595.207031 210.511719 600.84375 C 231.011719 611.855469 248.710938 621.367188 253.59375 653.507812 C 262.675781 713.472656 301.277344 770.976562 317.457031 792.914062 C 329.28125 808.960938 341.914062 817.804688 353.011719 817.804688 C 357.707031 817.804688 361.976562 816.152344 365.019531 813.160156 C 368.019531 810.214844 369.671875 806.175781 369.671875 801.789062 C 369.671875 798.550781 369.980469 795.171875 370.300781 791.585938 C 371.066406 783.089844 371.933594 773.457031 369.570312 760.464844 C 366.386719 742.917969 366.535156 734.554688 370.164062 728.5 C 370.789062 727.445312 372.210938 727.03125 375.070312 726.40625 C 378.265625 725.707031 382.644531 724.75 385.089844 720.574219 C 386.78125 717.683594 386.96875 714.207031 385.664062 709.941406 C 384.886719 707.382812 383.914062 704.972656 382.957031 702.636719 C 379.855469 695.023438 378.300781 691.195312 384.34375 684.152344 C 395.792969 670.816406 414.332031 640.640625 417.78125 618.214844 C 418.636719 612.652344 421.421875 606.511719 424.121094 600.570312 C 428.621094 590.636719 433.28125 580.359375 429.125 571.292969 C 426.570312 565.722656 421.316406 561.835938 413.058594 559.40625 Z M 413.058594 559.40625 "/>
<path style=" stroke:none;fill-rule:nonzero;fill:rgb(100%,100%,100%);fill-opacity:1;" d="M 378.476562 125.96875 C 376.730469 122.839844 372.847656 121.628906 369.632812 123.234375 C 368.960938 123.570312 353.089844 131.695312 353.089844 148.484375 C 353.089844 151.84375 348.234375 157.90625 344.683594 162.335938 C 338.457031 170.117188 329.035156 181.882812 339.4375 190.542969 C 341.980469 192.660156 345.46875 193.78125 349.527344 193.78125 C 359.421875 193.78125 373.4375 186.976562 381.082031 173.976562 C 386.734375 164.375 390.863281 148.25 378.476562 125.96875 Z M 378.476562 125.96875 "/>
<path style=" stroke:none;fill-rule:nonzero;fill:rgb(100%,100%,100%);fill-opacity:1;" d="M 505.714844 242.753906 C 531.953125 229.636719 528.808594 188.285156 528.660156 186.53125 C 528.496094 184.582031 527.488281 182.796875 525.894531 181.652344 C 524.300781 180.511719 522.289062 180.132812 520.386719 180.59375 C 514.523438 182.042969 484.890625 190.027344 477.453125 204.878906 C 473.117188 213.5625 472.078125 228.125 477.851562 237.460938 C 481.296875 243.039062 486.734375 246.113281 493.15625 246.113281 C 497.03125 246.113281 501.253906 244.984375 505.714844 242.753906 Z M 505.714844 242.753906 "/>
</g>
</svg>
